<?xml version="1.0" encoding="utf-8"?>
<svg viewBox="-110.685 -135.255 715.561 720" xmlns="http://www.w3.org/2000/svg">
  <radialGradient id="SVGID_3_" gradientUnits="userSpaceOnUse" cy="360.71" cx="358.49" r="358.89" gradientTransform="matrix(1, 0, 0, 1, -111.394386, -135.965332)">
    <stop stop-color="#A3CD39" offset="0"/>
    <stop stop-color="#9FCC3B" offset="0.1721"/>
    <stop stop-color="#92C83E" offset="0.3626"/>
    <stop stop-color="#6CBE45" offset="0.6758"/>
    <stop stop-color="#57B447" offset="0.7402"/>
    <stop stop-color="#19A64A" offset="0.8626"/>
    <stop stop-color="#139E49" offset="0.8845"/>
    <stop stop-color="#149B48" offset="0.8901"/>
    <stop stop-color="#0A9347" offset="1"/>
  </radialGradient>
  <clipPath id="SVGID_2_">
    <path d="M 247.096 584.745 C 444.696 584.745 604.876 423.565 604.876 224.745 C 604.876 25.925 444.686 -135.255 247.096 -135.255 C 49.506 -135.257 -110.684 25.925 -110.684 224.745 C -110.685 423.565 49.506 584.745 247.096 584.745 Z" overflow="visible"/>
  </clipPath>
  <radialGradient id="SVGID_6_" gradientUnits="userSpaceOnUse" cy="363.65" cx="358.49" r="357.42" gradientTransform="matrix(1, 0, 0, 1, -111.394386, -135.965332)">
    <stop stop-color="#3898D4" offset="0"/>
    <stop stop-color="#3898D4" offset="0.3901"/>
    <stop stop-color="#184797" offset="0.989"/>
  </radialGradient>
  <clipPath id="SVGID_5_">
    <path d="M 247.096 584.745 C 196.388 584.745 148.032 574.083 104.286 554.925 C 106.591 553.002 106.591 549.144 103.327 548.254 C 102.141 545.881 101.844 538.462 107.185 539.058 C 112.524 539.65 122.91 545.583 120.24 535.2 C 117.569 524.818 122.613 534.311 122.613 534.311 C 122.613 534.311 124.391 533.421 126.765 535.794 C 129.138 538.168 132.699 539.947 133.591 538.168 C 134.48 536.387 138.93 533.716 144.566 534.608 C 150.205 535.497 152.873 526.892 152.873 526.892 C 152.873 526.892 159.994 535.496 154.953 520.661 C 149.908 505.829 155.246 512.354 158.514 511.763 C 158.216 509.39 159.7 511.465 159.994 507.313 C 161.775 509.092 177.795 508.794 177.795 508.794 C 177.795 508.794 176.315 503.753 178.688 502.269 C 182.84 507.313 193.223 508.203 191.445 504.047 C 207.465 494.553 196.191 491.587 200.049 488.917 C 203.904 486.246 205.983 480.609 200.939 476.159 C 202.127 475.271 205.091 470.818 204.796 467.258 C 217.256 467.556 211.765 462.957 211.765 462.957 C 211.765 462.957 215.179 463.404 214.29 459.844 C 213.397 456.283 223.784 454.799 223.189 452.723 C 222.596 450.645 226.157 447.382 228.825 446.789 C 231.496 446.194 235.056 439.668 236.242 437.59 C 237.43 435.513 229.421 430.767 229.421 430.767 C 229.421 430.767 215.477 432.842 220.667 430.325 C 225.857 427.802 214.881 426.019 211.024 426.615 C 210.432 423.055 206.872 422.162 206.872 422.162 C 206.872 422.162 198.862 424.241 197.971 419.789 C 195.992 409.899 185.809 415.042 185.809 415.042 C 185.809 415.042 174.83 412.077 170.973 407.922 C 166.523 412.077 158.216 410.592 164.448 407.627 C 170.677 404.658 168.009 400.507 165.039 401.396 C 162.075 402.286 151.986 402.286 151.393 398.428 C 147.832 397.539 145.752 402.881 144.272 404.068 C 142.789 401.694 134.183 405.549 130.625 406.735 C 128.548 404.957 124.689 408.517 122.911 407.628 C 121.131 406.735 116.681 409.705 119.943 405.55 C 123.206 401.397 126.766 404.659 128.25 403.77 C 129.735 402.882 130.326 401.695 130.326 401.695 C 130.326 401.695 133.887 403.175 138.634 401.397 C 143.38 399.617 143.678 396.056 141.9 393.388 C 140.118 390.717 137.447 396.056 133.593 396.651 C 133.061 394.261 135.073 394.574 135.669 392.496 C 136.26 390.42 135.073 389.233 132.998 389.53 C 131.513 392.793 127.659 396.651 122.316 396.056 C 122.316 392.792 119.943 395.761 115.791 398.429 C 111.637 401.1 110.747 395.463 113.712 394.574 C 116.681 393.683 123.504 390.123 127.065 389.53 C 130.626 388.935 127.954 386.859 129.438 385.969 C 130.921 385.081 131.513 389.827 131.811 382.112 C 132.109 374.4 125.58 377.663 125.877 373.215 C 126.175 368.762 122.614 365.201 120.832 362.533 C 119.054 359.862 119.352 357.19 119.352 357.19 L 116.383 357.488 C 116.383 357.488 110.747 353.632 107.187 355.412 C 101.551 346.213 95.32 355.412 94.132 351.555 C 92.946 347.699 85.528 350.072 82.265 347.994 C 79.002 345.918 85.528 339.39 80.483 336.424 C 76.934 334.336 76.035 329.599 76.035 329.599 C 76.035 329.599 70.398 333.159 70.101 326.038 C 69.803 318.918 64.762 320.401 62.387 322.477 C 62.387 320.401 60.309 319.513 58.234 318.917 C 57.343 317.138 64.168 316.249 64.168 316.249 C 64.168 316.249 66.838 317.138 68.914 316.543 C 68.323 311.797 61.495 311.797 60.31 312.094 C 59.122 312.392 52.003 315.063 50.816 313.875 C 49.628 312.688 46.366 309.721 44.882 310.019 C 43.402 310.316 35.093 307.942 35.093 307.942 C 35.093 307.942 33.61 303.788 31.827 303.788 C 30.05 303.788 27.676 303.196 26.786 299.636 C 28.266 298.151 27.676 296.37 27.379 291.92 C 27.081 287.471 25.6 287.471 21.443 289.547 C 21.443 289.547 24.116 296.667 19.07 299.04 C 14.026 301.414 18.182 303.788 18.182 303.788 C 18.182 303.788 19.665 306.459 17.291 308.237 C 14.918 310.019 15.807 310.316 12.545 309.13 C 9.278 307.942 9.873 304.383 11.357 302.899 C 12.838 301.415 13.731 299.636 15.508 297.557 C 17.29 295.481 14.917 293.997 14.62 292.217 C 14.322 290.437 14.024 288.36 17.585 287.471 C 21.146 286.581 19.366 284.208 18.181 284.8 C 16.993 285.396 16.696 286.283 13.731 285.987 C 10.762 284.209 9.278 284.504 7.797 286.877 C 6.014 285.689 -5.852 287.472 -5.556 289.25 C -5.258 291.032 -4.963 292.516 -6.742 293.107 C -8.524 293.703 -9.414 296.076 -9.712 299.636 C -11.49 310.611 -13.566 298.448 -13.566 295.183 C -13.566 291.92 -14.162 291.329 -17.279 290.291 C -18.614 286.879 -23.358 287.471 -24.546 288.063 C -25.732 288.658 -32.853 289.249 -32.853 288.063 C -32.853 286.875 -31.963 279.754 -35.226 279.754 C -35.821 277.381 -34.928 275.008 -37.454 271.004 C -34.636 271.152 -35.821 269.074 -36.711 266.554 C -36.711 266.554 -37.157 263.141 -37.899 262.548 C -36.86 262.399 -36.86 261.064 -36.86 261.064 C -36.86 261.064 -32.556 261.064 -32.556 257.358 C -32.556 253.647 -34.929 252.905 -34.189 250.979 C -36.117 249.198 -33.744 245.339 -32.261 244.451 C -30.778 243.561 -29.293 240.001 -33.151 239.406 C -31.964 236.441 -36.117 234.067 -41.161 233.77 C -42.349 232.583 -42.648 230.507 -47.839 230.209 C -53.03 229.911 -49.172 226.351 -47.392 225.165 C -45.612 223.977 -43.773 213.171 -45.019 213.003 C -40.571 213.595 -37.9 214.19 -37.9 210.332 C -37.9 206.474 -34.042 209.736 -34.339 204.398 C -34.637 199.055 -27.626 206.926 -33.151 197.575 C -37.009 191.047 -39.382 196.388 -43.238 194.904 C -47.234 193.369 -50.952 198.761 -46.797 203.212 C -44.722 204.101 -48.754 209.146 -54.513 209.146 C -56.589 209.146 -59.559 201.876 -59.559 200.838 C -59.559 199.8 -60.004 197.869 -63.267 196.538 C -66.53 195.201 -65.493 191.047 -62.82 190.157 C -62.225 187.188 -62.969 180.22 -62.969 180.22 C -62.969 180.22 -61.932 177.695 -62.225 177.103 C -60.596 176.213 -59.706 169.54 -59.852 168.201 C -61.04 164.937 -57.184 161.972 -52.289 161.824 C -51.4 160.046 -53.179 154.704 -53.919 153.96 C -54.663 153.22 -51.843 154.406 -52.141 149.213 C -50.066 148.324 -49.173 146.991 -49.173 144.466 C -47.84 141.946 -47.393 144.466 -46.798 142.092 C -46.207 139.719 -47.097 136.904 -45.612 136.158 C -44.13 135.418 -41.459 135.566 -40.864 135.716 C -36.416 136.753 -36.416 139.425 -33.45 138.532 C -30.482 137.643 -31.077 139.719 -30.779 142.389 C -30.482 145.06 -30.187 148.324 -28.851 146.544 C -28.851 146.544 -26.181 147.732 -27.664 152.18 C -27.961 153.814 -26.477 153.07 -26.623 154.554 C -25.435 157.52 -22.322 156.187 -22.322 156.187 C -22.322 156.187 -21.284 155.298 -22.027 153.666 C -22.767 152.033 -22.917 147.435 -21.875 146.991 C -20.842 146.545 -22.917 143.874 -22.917 143.874 C -22.917 143.874 -24.548 140.611 -21.73 141.649 C -18.911 142.686 -19.357 143.133 -18.911 144.465 C -18.467 145.804 -16.239 146.694 -12.977 146.246 C -9.714 145.804 -17.128 147.879 -8.23 149.212 C -7.042 152.032 -10.432 149.952 -7.042 152.773 C -6.153 153.516 -7.489 155.001 -8.23 155.741 C -8.974 156.485 -8.974 158.263 -8.23 158.707 C -7.49 159.153 -6.004 158.264 -5.707 159.302 C -4.967 158.264 -3.632 160.34 -3.483 162.268 C -0.961 164.793 -3.184 167.312 -4.67 168.202 C -6.154 169.095 -4.074 171.763 -4.074 171.763 C -7.34 172.06 -7.34 173.693 -7.043 174.136 C -6.745 174.582 -6.895 175.475 -7.34 175.917 C -5.56 177.253 -6.895 179.924 -7.635 183.038 C -6.005 184.816 -6.303 188.082 -6.6 189.563 C -6.895 191.047 -3.632 191.196 -2.743 188.673 C -1.854 186.154 -1.11 187.189 -0.667 187.189 C -0.222 187.189 -0.222 185.411 -1.26 184.224 C -2.298 183.037 -2 181.255 -1.702 180.069 C -1.407 178.882 -1.557 178.291 0.671 178.291 C 2.599 176.806 2.748 174.582 4.823 172.949 C 2.152 172.949 2.892 171.914 3.045 170.727 C 3.191 169.54 0.817 167.61 0.671 165.829 C 0.519 164.05 0.519 161.379 3.636 157.521 C 4.376 155.445 3.636 152.181 3.636 152.181 C 5.121 149.808 6.602 150.404 9.124 150.254 C 11.646 150.106 15.206 146.84 18.176 147.435 C 21.141 148.027 22.624 143.578 22.624 143.578 C 25.295 141.502 27.966 144.765 31.228 142.985 C 34.491 141.204 38.941 137.941 38.051 134.972 C 37.162 132.007 43.394 134.083 40.126 123.996 C 37.753 119.25 42.794 119.548 40.573 117.322 C 38.348 115.094 49.62 113.911 50.362 117.025 C 52.885 116.579 51.995 111.534 56.741 114.503 C 57.336 110.646 61.786 107.975 64.755 113.019 C 67.72 118.063 70.982 113.317 70.982 113.317 C 70.982 113.317 75.435 110.05 77.512 111.237 C 79.587 112.425 70.387 105.009 77.065 103.083 C 76.918 96.405 85.521 96.405 87.006 96.997 C 88.489 97.593 97.328 99.307 101.544 95.516 C 104.509 92.845 111.331 96.406 106.882 97.593 C 102.434 98.78 100.357 100.558 100.059 102.041 C 96.796 102.041 95.721 107.922 100.357 105.602 C 102.73 104.415 104.807 100.558 106.291 102.339 C 107.772 104.117 109.554 103.823 110.146 102.191 C 116.229 103.084 118.006 101.745 118.006 101.745 C 118.006 101.745 120.085 99.523 119.937 97.594 C 122.163 96.854 125.871 96.854 126.02 93.293 C 126.168 89.732 125.279 89.286 125.279 89.286 L 120.677 89.434 C 120.677 89.434 118.158 88.69 118.158 87.503 C 117.116 89.434 112.518 89.136 112.223 88.099 C 111.927 87.061 109.85 80.829 111.629 80.089 C 113.41 79.348 111.629 78.01 111.629 78.01 C 111.629 78.01 109.107 78.903 108.068 78.605 C 107.029 78.307 109.551 76.232 108.068 75.636 C 106.584 75.044 115.187 75.49 118.005 74.896 C 120.824 74.304 122.458 74.006 119.936 69.409 C 117.414 69.409 113.113 72.522 111.629 69.557 C 110.145 66.588 104.061 72.373 101.391 71.633 C 98.723 70.889 95.61 72.969 94.27 74.602 C 92.939 74.602 89.969 78.605 86.856 78.456 C 83.743 78.307 83.147 78.604 83.147 78.604 C 83.147 78.604 81.96 76.528 83.147 76.822 C 84.334 77.119 86.116 76.379 86.708 75.49 C 87.302 74.601 90.711 74.154 92.492 72.818 C 94.27 71.483 99.613 67.922 101.544 67.922 C 103.471 67.922 102.136 65.107 104.657 65.697 C 104.657 65.697 105.547 66.141 105.696 66.736 C 105.844 67.327 107.622 64.808 110.885 66.587 C 113.113 66.439 115.337 63.026 121.718 66.142 C 122.458 67.775 122.904 70.296 122.904 70.296 C 122.904 70.296 124.385 69.998 124.092 73.115 C 123.795 76.23 126.76 78.751 129.431 76.23 C 128.687 72.967 129.133 70.887 130.171 70.742 C 131.212 70.594 133.732 70.888 133.732 70.888 C 133.732 70.888 136.552 72.521 144.266 68.812 C 146.342 68.961 147.972 67.328 148.419 64.955 C 148.861 62.582 150.792 64.955 151.98 61.989 C 153.166 59.021 155.688 59.021 156.428 58.726 C 157.168 58.428 157.023 54.425 156.133 53.682 C 155.24 52.942 153.76 52.792 152.72 53.682 C 151.682 54.572 151.235 51.16 147.381 53.087 C 143.523 55.017 143.671 53.682 143.671 53.682 C 143.671 53.682 145.006 52.347 145.599 52.052 L 145.599 50.865 C 145.599 50.865 150.792 50.714 152.575 49.526 C 154.353 48.339 152.721 44.337 146.641 45.374 C 145.599 43.745 149.903 43.745 145.897 40.776 C 145.156 38.551 146.641 38.402 145.006 35.731 L 146.046 35.583 C 146.046 35.583 145.746 32.171 146.488 31.579 C 147.231 30.984 146.64 29.058 146.64 29.058 C 146.64 29.058 148.413 26.538 146.786 23.273 L 147.826 22.383 L 147.529 20.602 C 147.529 20.602 149.156 19.122 150.049 18.526 C 150.942 17.931 150.345 15.557 150.345 15.557 L 148.862 16.153 C 148.862 16.153 146.934 12.001 144.114 16.45 C 144.71 17.484 143.223 18.083 144.114 19.118 C 142.188 19.564 141.596 21.343 141.596 21.343 C 141.596 21.343 140.848 20.903 140.26 21.492 C 139.222 20.304 138.332 20.9 137.44 21.492 C 136.552 22.087 132.247 21.045 132.544 19.416 C 133.434 19.118 133.586 18.672 132.102 17.932 C 130.619 17.192 132.694 13.486 133.139 12.593 C 133.586 11.703 136.845 8.883 136.994 11.406 C 137.146 13.925 139.665 8.586 137.439 7.697 C 136.402 6.063 137.292 2.057 135.959 1.169 C 134.621 0.279 136.547 -1.351 133.434 -2.835 C 130.32 -4.319 130.766 -5.506 130.766 -5.506 C 130.766 -5.506 127.204 -5.205 125.722 -6.098 C 124.24 -6.991 126.909 -7.14 123.497 -7.731 C 120.085 -8.326 119.784 -8.323 118.601 -9.067 C 117.413 -9.81 115.04 -8.769 115.04 -8.769 C 115.04 -8.769 115.632 -7.433 115.04 -6.693 C 114.444 -5.953 116.228 -5.064 116.228 -5.064 C 116.228 -5.064 116.67 -2.985 117.711 -1.947 C 118.748 -0.908 116.078 -2.539 117.115 1.316 C 116.673 3.396 115.485 2.209 114.89 3.396 C 114.299 4.583 113.257 5.915 113.257 5.915 C 113.257 5.915 110.884 7.105 112.07 8.735 C 113.257 10.364 105.69 5.029 107.62 15.557 C 106.434 16.153 105.992 17.931 106.137 18.824 C 103.32 17.636 102.576 19.419 102.576 23.57 C 102.576 27.723 99.76 24.903 97.535 26.238 C 95.456 26.978 92.19 26.39 91.895 26.536 C 92.639 27.574 91.452 28.318 89.522 28.464 C 89.522 28.464 87.003 29.207 86.556 32.47 C 86.556 32.47 83.881 33.363 83.885 34.252 C 83.885 35.141 78.144 35.378 82.995 38.998 C 83.588 39.441 80.92 40.926 80.92 40.926 C 80.92 40.926 80.619 42.857 80.622 43.151 C 80.622 43.449 74.837 43.594 74.688 42.705 C 74.539 41.816 71.425 42.854 74.39 38.848 C 76.619 38.702 77.359 37.814 76.913 33.212 C 76.466 28.613 78.396 34.399 81.068 27.277 C 81.659 25.35 80.471 21.644 81.51 21.198 C 82.551 20.752 81.808 19.417 81.808 19.417 C 83.291 15.112 76.172 17.783 78.098 10.663 C 80.026 3.543 78.838 7.403 76.465 6.064 C 75.576 5.175 76.172 3.397 76.172 3.397 C 76.172 3.397 70.089 4.729 73.499 -1.056 C 76.912 -6.841 72.016 -3.578 76.617 -7.139 L 76.319 -8.768 C 76.319 -8.768 78.247 -6.394 80.177 -15.148 C 82.252 -15.148 85.813 -17.819 85.958 -18.709 C 86.11 -19.598 90.856 -18.561 93.23 -21.082 C 95.604 -23.604 97.084 -19.304 104.651 -25.383 C 104.206 -23.605 109.693 -25.383 109.693 -25.383 C 109.693 -25.383 110.436 -24.494 108.658 -23.456 C 110.436 -23.158 112.512 -23.308 112.869 -22.23 C 112.876 -22.232 112.411 -24.223 114.439 -25.237 C 115.778 -24.196 118.743 -26.868 119.338 -27.61 C 119.93 -28.351 122.155 -29.241 123.043 -28.798 C 123.933 -28.352 127.198 -30.725 129.126 -30.278 C 128.236 -33.098 129.424 -32.949 134.17 -33.098 C 135.655 -34.434 138.325 -34.136 138.325 -34.136 C 138.325 -34.136 140.844 -37.104 138.325 -40.07 C 135.8 -43.038 135.209 -48.08 133.724 -46.004 C 132.239 -43.928 129.423 -45.412 129.423 -45.412 C 129.423 -45.412 127.492 -35.918 122.302 -43.038 C 120.524 -41.258 117.556 -41.851 117.556 -41.851 C 117.556 -41.851 118.296 -44.965 116.072 -47.633 C 113.846 -50.304 118.297 -51.047 115.777 -57.87 C 114.438 -56.981 112.808 -58.465 112.808 -58.465 L 112.216 -54.311 C 112.216 -54.311 107.614 -51.639 108.504 -58.02 C 109.397 -64.4 110.878 -66.919 114.59 -66.773 C 118.296 -66.622 114.59 -71.52 114.59 -71.52 C 114.59 -71.52 115.921 -72.708 116.963 -72.112 C 117.998 -73.448 119.185 -81.16 116.963 -81.606 C 117.556 -82.049 118.594 -83.236 118.594 -83.236 C 118.594 -83.236 121.264 -85.315 116.666 -85.166 C 112.064 -85.018 112.957 -83.683 112.957 -83.683 C 112.957 -83.683 110.878 -86.354 113.403 -86.949 C 113.845 -88.137 114.735 -89.323 120.077 -89.765 C 125.415 -90.211 118.15 -90.952 127.79 -92.882 C 127.79 -94.958 129.268 -96.157 138.027 -95.699 C 143.663 -95.401 142.03 -98.072 142.477 -101.037 C 145.59 -101.633 151.971 -104.006 151.822 -109.791 C 151.674 -115.575 153.455 -113.5 153.157 -116.617 C 152.859 -119.73 162.651 -119.582 164.433 -121.956 C 165.468 -120.025 169.474 -119.284 169.474 -119.284 C 171.847 -118.693 184.607 -123.142 184.607 -123.142 C 184.607 -123.142 189.649 -120.471 194.101 -123.737 C 195.88 -117.506 199.142 -129.076 205.968 -123.142 C 210.12 -123.439 208.342 -126.999 214.866 -124.626 C 214.866 -124.626 221.69 -124.328 223.175 -124.923 C 224.658 -125.515 232.076 -122.844 233.558 -126.11 C 235.042 -129.374 244.537 -126.11 244.537 -126.11 C 244.537 -126.11 238.306 -121.658 246.319 -121.956 L 247.796 -122.022 C 254.752 -122.405 257.66 -123.532 254.328 -124.923 C 250.767 -126.404 259.075 -126.701 263.525 -121.955 C 266.195 -121.362 271.241 -122.253 271.241 -122.253 C 271.241 -122.253 272.563 -122.625 274.504 -119.581 C 276.579 -116.318 276.282 -127.591 280.438 -122.844 C 283.109 -121.363 281.624 -126.11 293.789 -122.55 C 305.951 -118.989 297.35 -114.537 297.35 -114.537 L 297.942 -113.056 L 296.164 -110.385 C 291.712 -107.713 292.307 -103.562 299.428 -109.495 C 302.987 -104.451 299.724 -116.021 314.855 -109.198 C 318.415 -110.682 316.633 -102.67 321.679 -107.122 C 321.679 -107.122 321.086 -102.967 327.908 -105.043 C 334.731 -107.122 331.765 -102.967 331.765 -102.967 C 331.765 -102.967 336.808 -105.34 339.479 -104.154 C 342.149 -102.967 340.748 -101.398 351.941 -100.003 C 356.687 -99.407 351.941 -96.145 348.38 -96.442 C 348.675 -93.473 360.599 -88.876 358.466 -92.881 C 356.092 -97.331 357.576 -97.331 360.839 -91.694 C 364.103 -86.054 371.521 -94.362 371.521 -94.362 C 371.521 -94.362 376.267 -90.508 375.081 -88.134 C 373.893 -85.76 377.455 -83.978 377.455 -83.978 C 381.904 -85.76 390.791 -79.082 375.676 -80.418 C 365.587 -81.308 371.223 -76.266 372.115 -75.671 C 373.005 -75.079 378.938 -81.013 379.531 -70.626 C 380.126 -60.243 382.797 -64.398 382.797 -64.398 C 382.797 -64.398 389.917 -67.065 389.025 -60.243 C 388.135 -53.42 387.248 -51.046 394.665 -44.815 C 402.079 -38.584 391.104 -37.397 389.025 -39.179 C 386.949 -40.957 379.237 -41.255 376.864 -39.476 C 374.489 -37.695 375.971 -41.849 379.237 -42.143 C 382.5 -42.441 380.127 -46.596 385.762 -48.375 C 391.399 -50.156 378.344 -54.011 376.268 -52.529 C 374.193 -51.045 365.587 -55.197 357.578 -53.122 L 356.39 -54.903 C 356.39 -54.903 351.049 -54.605 351.347 -53.122 C 351.644 -51.637 343.337 -54.309 340.075 -50.156 C 336.809 -46.001 343.039 -39.769 340.075 -36.507 C 344.523 -34.729 346.897 -27.013 346.009 -23.453 C 345.116 -19.892 352.236 -20.487 352.236 -20.487 C 352.236 -20.487 355.797 -19.3 351.943 -13.367 C 355.797 -11.883 354.316 -4.465 353.131 -2.091 C 351.943 0.282 356.69 3.545 355.504 6.807 C 354.316 10.073 361.438 10.073 361.438 10.073 C 361.438 10.073 364.403 17.785 366.776 19.861 C 369.15 21.94 374.815 16.845 373.896 8.589 C 373.6 5.918 378.346 9.479 378.346 9.479 C 378.346 9.479 383.986 14.226 383.391 16.897 C 382.799 19.568 381.612 22.831 378.052 20.458 C 376.568 26.095 377.457 33.809 383.986 32.325 C 383.687 29.062 386.654 29.654 386.654 29.654 C 386.654 29.654 381.005 24.758 392.294 27.578 C 398.228 29.062 394.667 22.236 397.93 16.303 C 401.193 10.368 403.566 8.59 396.148 8.887 C 388.734 9.182 386.983 3.45 386.361 1.47 C 384.578 -4.167 385.336 5.717 377.16 -6.54 C 374.196 -10.993 379.062 -8.885 373.306 -13.366 C 370.635 -15.442 376.271 -22.265 376.271 -22.265 C 376.271 -22.265 373.306 -27.011 367.963 -24.638 C 362.624 -22.265 366.776 -29.683 367.963 -29.385 C 369.151 -29.087 373.306 -27.901 375.381 -29.385 C 377.458 -30.869 379.831 -26.714 379.831 -26.714 C 379.831 -26.714 378.119 -10.346 386.654 -12.179 C 390.808 -13.069 390.51 -2.685 397.04 -10.695 L 400.005 -10.695 C 400.005 -10.695 401.193 -15.144 403.269 -14.256 C 405.348 -13.366 405.051 -20.486 404.162 -22.266 C 403.269 -24.047 414.381 -22.073 410.096 -9.211 C 408.315 -3.872 401.788 -4.464 401.788 -4.464 L 405.349 1.766 C 408.611 11.26 413.656 12.447 411.873 23.422 C 411.462 25.944 405.643 26.688 405.643 26.688 C 405.643 26.688 405.052 33.511 396.744 33.214 C 388.436 32.917 391.7 35.289 390.513 35.587 C 389.327 35.884 390.811 42.116 388.14 42.409 C 385.47 42.707 385.47 53.388 377.756 44.783 C 370.042 36.181 375.086 56.948 378.646 52.498 C 382.207 48.05 380.131 60.806 381.615 57.838 C 383.095 54.872 382.505 68.816 372.416 69.411 C 362.331 70.002 373.899 76.825 376.273 76.234 C 378.646 75.638 379.242 78.905 366.482 78.607 C 353.725 78.309 356.395 91.959 368.56 87.803 C 380.722 83.651 374.494 88.99 374.494 88.99 L 377.162 91.066 C 377.162 91.066 376.121 91.515 375.9 92.923 C 375.681 94.331 379.834 96.407 380.722 96.999 C 381.615 97.595 385.47 105.306 384.579 107.386 C 383.689 109.462 389.327 116.88 367.965 112.427 C 365.592 115.988 353.427 113.022 353.427 113.022 C 353.427 113.022 357.263 117.646 347.198 118.361 C 343.043 118.659 352.835 120.143 353.724 126.965 C 354.614 133.788 357.581 134.975 357.581 134.975 L 357.284 144.767 C 357.284 144.767 359.657 150.404 368.853 147.438 C 368.853 153.372 373.008 158.416 382.8 150.999 L 388.734 150.999 C 388.734 150.999 387.546 145.656 397.041 145.656 C 398.229 143.283 395.26 141.802 398.819 137.944 C 402.381 134.087 391.997 131.416 403.566 123.703 C 415.136 115.988 398.819 121.922 407.721 110.649 C 405.642 107.386 400.601 94.626 413.655 102.933 C 413.95 98.186 414.843 89.287 416.029 89.287 C 417.215 89.287 430.017 84.249 429.083 96.407 C 428.786 100.264 434.72 94.625 442.138 103.528 C 448.367 103.23 455.784 106.493 455.784 106.493 C 455.784 106.493 453.764 112.417 455.193 119.547 C 455.784 122.516 449.85 120.734 449.85 120.734 C 448.367 128.45 459.344 125.187 462.312 124.889 C 465.278 124.592 458.753 117.769 458.753 117.769 C 457.565 112.132 469.728 107.088 458.157 102.341 C 458.157 102.341 469.432 98.484 452.819 96.999 C 438.327 95.708 443.618 92.252 443.618 92.252 C 443.618 92.252 434.72 92.549 433.831 84.54 C 423.74 84.242 427.897 67.037 439.17 81.571 C 450.444 96.109 439.17 78.011 452.819 88.1 C 457.267 88.1 465.277 90.771 465.872 92.846 C 466.464 94.922 467.354 101.155 467.354 101.155 C 467.354 101.155 471.805 99.372 472.1 102.932 C 472.397 106.493 481.594 110.35 482.78 108.866 C 483.968 107.386 490.687 115.069 486.048 105.012 C 484.265 101.156 488.421 101.156 488.421 101.156 C 490.794 95.518 480.114 100.265 479.519 94.035 C 478.927 87.804 478.331 83.353 478.331 83.353 C 478.331 83.353 483.674 80.98 483.968 83.353 C 486.048 81.572 483.079 68.223 478.927 70.299 C 474.772 72.375 483.674 64.068 475.366 60.805 C 476.846 56.058 470.322 56.651 472.397 50.717 C 467.65 48.938 469.134 44.488 471.805 44.488 C 470.619 41.817 475.366 40.63 475.366 40.63 C 475.366 40.63 476.256 35.288 480.114 37.069 C 478.926 32.915 478.629 25.202 480.705 25.795 C 482.78 26.39 483.079 28.168 483.079 28.168 C 483.079 28.168 486.043 30.842 482.93 34.846 C 479.817 38.849 485.452 38.555 485.452 38.555 C 485.452 38.555 491.386 37.96 493.167 40.63 C 496.728 38.555 499.692 40.63 499.692 40.63 C 499.692 40.63 501.768 44.488 506.813 45.08 C 511.858 45.675 508.965 57.391 501.474 58.431 C 490.793 59.916 497.022 66.145 494.354 69.41 C 491.683 72.673 486.047 69.112 487.233 88.691 C 489.31 94.625 494.056 94.331 494.056 96.705 C 494.056 99.078 492.572 97.595 492.572 97.595 C 492.572 97.595 492.275 102.639 499.1 105.902 C 505.925 109.165 505.329 105.604 506.813 104.715 C 508.296 103.825 505.923 100.858 510.076 100.858 C 509.484 97.595 511.858 91.066 513.637 93.145 C 516.606 89.288 518.383 103.231 519.868 99.968 C 521.351 96.705 519.275 91.066 519.275 91.066 C 519.275 91.066 521.351 87.803 528.174 102.341 C 527.284 109.164 537.668 117.769 529.362 118.955 C 521.055 120.143 533.81 125.481 520.463 127.263 C 517.792 132.01 512.747 129.041 512.747 129.041 C 512.747 129.041 515.12 134.681 499.101 132.01 C 498.805 138.535 486.938 135.273 491.386 138.535 C 495.835 141.802 488.715 141.802 491.982 152.776 C 487.529 154.26 475.069 153.371 474.179 152.776 C 473.288 152.183 472.993 144.766 466.464 151.886 C 461.126 150.997 456.838 151.642 454.005 152.776 C 448.071 155.149 452.521 145.361 451.037 143.877 C 449.552 142.393 454.248 132.431 449.257 133.196 C 441.543 134.383 439.467 130.822 435.906 133.788 C 432.346 136.756 422.554 140.316 420.776 140.316 C 418.994 146.547 411.873 151.295 409.5 151.588 C 409.5 157.819 398.819 158.117 398.819 158.117 C 398.819 158.117 399.414 164.939 392.295 165.237 C 385.174 165.535 392.886 170.873 375.382 167.908 C 374.787 176.216 367.075 179.18 365.888 182.149 C 364.702 185.115 375.386 213.004 348.087 213.004 C 346.604 213.004 350.46 215.377 350.46 215.377 C 350.46 215.377 351.351 219.231 348.385 221.606 C 345.417 223.979 347.79 232.881 342.154 236.739 C 336.518 240.594 331.175 267.888 343.342 274.715 C 345.715 270.857 349.276 279.756 343.342 285.397 C 338.594 284.209 337.408 287.77 337.408 291.033 C 337.408 294.296 331.473 297.264 331.473 297.264 C 336.22 300.824 329.356 302.182 336.22 306.757 C 338.891 308.535 328.211 316.251 339.781 316.545 C 351.351 316.844 353.134 322.185 353.134 322.185 C 353.134 322.185 354.911 325.449 356.395 325.746 C 357.88 326.04 355.507 328.119 355.507 328.119 L 355.8 331.383 C 355.8 331.383 364.703 329.009 366.187 345.623 C 367.669 362.237 383.69 349.48 383.69 349.48 C 383.69 349.48 390.216 374.402 402.678 358.974 C 409.501 357.49 421.666 360.162 421.666 360.162 C 421.666 360.162 425.227 356.894 425.227 354.521 C 425.227 352.148 429.084 351.853 429.974 354.819 C 430.863 357.787 436.24 351.949 436.24 351.949 C 436.24 351.949 439.501 336.367 455.652 333.281 L 458.755 331.383 C 458.755 331.383 462.362 335.765 461.745 337.579 C 461.128 339.391 464.175 336.984 464.175 336.984 C 464.175 336.984 469.036 346.261 470.274 344.755 C 471.51 343.25 476.199 333.544 477.562 341.81 C 479.224 342.063 481.597 344.437 481.894 345.92 C 482.192 347.401 484.267 345.623 484.267 345.623 C 482.49 340.876 487.828 331.974 489.61 349.775 C 491.388 367.576 483.97 357.49 488.717 371.434 C 494.948 369.654 494.948 375.589 494.948 375.589 C 494.948 375.589 502.958 379.15 498.508 382.113 C 494.059 385.083 503.851 389.829 498.211 404.661 C 507.113 407.035 505.633 413.516 495.837 412.97 C 490.498 412.672 492.873 428.398 486.344 433.144 C 488.125 439.078 476.258 446.496 485.157 452.132 C 482.782 457.473 483.676 463.999 483.676 463.999 C 483.676 463.999 478.631 466.372 479.224 480.613 C 473.29 484.471 475.071 490.996 475.663 492.48 C 480.116 493.076 489.903 483.284 491.983 478.537 C 494.058 473.79 493.76 480.613 499.694 472.9 C 505.628 465.186 508.003 464.593 509.784 464.296 C 511.561 463.999 513.344 461.626 514.531 455.395 C 520.168 453.915 519.87 449.759 522.541 447.087 C 525.211 444.42 530.55 438.779 532.925 437.594 C 535.298 436.406 533.813 432.254 533.813 432.254 C 533.813 432.254 537.079 428.398 538.561 429.286 C 540.044 430.178 542.122 420.684 540.639 418.014 C 539.156 415.343 548.351 415.641 548.351 415.641 C 548.351 415.641 547.165 412.672 550.133 413.268 C 549.24 406.147 557.846 403.476 553.988 393.982 C 559.032 394.576 556.659 384.191 563.187 384.191 C 564.965 380.63 564.077 374.104 562.889 372.918 C 567.637 373.808 571.788 366.389 573.571 363.721 C 575.349 361.051 589.59 336.129 581.283 327.525 C 583.953 315.066 583.063 308.835 582.469 307.35 C 581.878 305.867 592.61 296.884 589.59 284.802 C 587.812 277.682 593.151 275.904 595.524 267 C 597.898 258.101 590.778 263.738 596.119 252.76 C 601.458 241.782 594.338 244.453 594.338 244.453 C 594.338 244.453 596.417 234.661 599.085 233.772 C 601.757 232.882 596.119 224.278 596.119 224.278 C 596.119 224.278 595.524 219.233 598.195 218.642 C 600.867 218.046 598.195 209.148 595.823 208.552 C 598.195 206.179 597.306 199.356 596.417 196.093 C 595.524 192.83 599.382 185.71 595.823 184.818 C 592.856 188.084 595.524 190.458 594.044 194.907 C 592.561 199.356 595.823 206.477 589.297 207.962 C 582.769 209.445 585.142 200.544 585.142 200.544 C 585.142 200.544 584.845 195.499 581.879 195.796 C 578.911 196.094 579.208 192.534 579.208 192.534 C 579.208 192.534 574.163 196.391 574.461 190.458 C 574.758 184.524 573.273 180.071 573.273 180.071 C 573.273 180.071 570.011 180.368 567.934 177.106 C 562.89 177.106 564.966 168.798 564.966 168.798 C 564.966 168.798 560.517 166.425 560.22 162.864 C 557.547 164.939 551.321 155.446 552.508 153.962 C 553.694 152.481 545.387 150.997 544.792 147.734 C 544.199 144.467 539.453 140.613 537.671 140.315 C 535.893 140.018 537.078 127.261 537.078 127.261 C 537.078 127.261 542.121 128.745 541.231 135.568 C 542.121 139.426 547.461 137.052 547.461 137.052 C 547.461 137.052 543.136 139.496 553.395 141.204 C 556.956 141.8 556.956 147.435 556.956 147.435 L 560.814 147.435 C 560.814 147.435 563.779 156.929 563.187 160.787 C 566.153 163.161 569.416 161.974 569.416 161.974 C 569.416 161.974 569.416 166.424 572.682 168.797 C 575.945 171.17 576.834 174.731 576.834 175.917 C 576.834 177.105 584.251 176.215 584.549 179.775 C 584.844 183.335 583.362 186.895 586.922 190.158 C 585.736 194.31 589.59 198.168 589.887 190.456 C 590.185 182.74 588.404 176.806 592.56 174.433 C 595.23 168.797 591.372 167.611 592.56 161.974 C 593.746 156.335 592.56 139.426 585.737 138.534 C 584.549 133.492 585.737 117.172 582.768 114.799 C 579.803 112.426 580.989 108.274 580.989 108.274 C 580.989 108.274 575.647 104.119 576.835 102.34 C 578.022 100.559 572.385 89.286 572.978 101.745 C 570.902 101.745 574.461 105.305 574.461 105.305 C 574.461 105.305 570.603 106.79 570.901 110.648 C 567.339 107.385 572.088 103.825 563.188 104.417 C 559.033 101.155 563.78 92.847 559.033 93.438 C 554.287 94.034 551.913 93.736 553.099 86.913 C 554.287 80.091 557.254 89.287 557.254 89.287 C 557.254 89.287 560.815 89.287 563.483 91.363 C 566.154 93.438 574.461 89.287 568.824 86.024 C 568.824 86.024 572.977 80.384 569.417 79.495 C 565.856 78.606 567.935 74.156 564.078 71.783 C 566.749 71.485 566.451 66.441 566.451 66.441 L 567.758 64.9 C 591.517 113.06 604.88 167.34 604.88 224.75 C 604.87 423.5 444.68 584.68 247.09 584.68 L 247.096 584.745 Z M 288.306 -30.285 C 288.455 -29.396 286.971 -29.248 285.933 -28.805 C 284.895 -28.359 284.304 -25.539 286.971 -25.244 C 288.01 -23.905 291.985 -24.323 291.985 -24.323 C 291.985 -24.323 292.612 -25.984 290.681 -25.984 C 290.828 -26.43 289.345 -27.022 289.136 -27.349 C 288.916 -27.679 289.486 -29.399 288.296 -30.289 L 288.306 -30.285 Z M 294.006 -29.895 C 295.281 -29.835 289.196 -28.826 294.541 -28.294 C 295.132 -27.461 297.417 -27.433 298.279 -28.116 C 299.139 -28.8 298.395 -30.876 297.36 -30.429 C 296.319 -29.986 294.895 -30.963 294.895 -30.963 L 293.995 -29.903 L 294.006 -29.895 Z M 295.426 -24.505 C 293.943 -24.062 293.547 -23.704 294.043 -22.694 C 294.537 -21.687 296.033 -23.169 297.363 -21.982 C 298.683 -20.792 298.683 -24.502 295.423 -24.502 L 295.426 -24.505 Z M 307.836 17.975 C 306.058 18.962 308.625 20.341 309.811 19.554 C 311.001 18.774 310.011 17.974 307.841 17.974 L 307.836 17.975 Z M 333.406 14.965 C 331.775 15.854 334.593 16.742 335.336 16.742 C 336.076 16.742 335.929 14.815 335.929 14.815 C 335.929 14.815 334.589 15.405 333.409 14.965 L 333.406 14.965 Z M 332.666 23.715 C 331.331 24.458 333.258 25.496 334.151 24.902 C 335.041 24.302 334.301 23.712 332.671 23.712 L 332.666 23.715 Z M 266.656 -37.528 C 267.074 -37.351 267.46 -37.322 267.697 -37.494 C 268.236 -37.889 269.325 -38.1 268.946 -38.808 C 269.494 -39.768 268.719 -40.816 268.719 -40.816 C 268.719 -40.816 273.912 -48.383 265.604 -51.943 C 267.977 -53.131 271.538 -57.286 268.126 -62.772 C 268.126 -62.772 270.946 -63.811 269.611 -69.298 C 278.36 -74.194 276.88 -76.864 263.825 -69.152 C 268.571 -73.898 258.482 -72.117 254.331 -70.339 C 250.176 -68.558 237.121 -70.339 245.578 -73.155 C 254.031 -75.971 250.176 -79.237 239.941 -76.121 C 229.703 -73.007 230.002 -75.678 228.519 -75.086 C 227.036 -74.491 218.728 -77.459 218.133 -80.425 C 217.542 -83.393 209.234 -83.985 205.599 -79.162 C 204.335 -82.055 192.62 -75.678 192.62 -69.744 C 178.378 -67.37 179.565 -64.997 183.126 -64.405 C 190.245 -65.592 205.673 -60.844 190.688 -60.991 C 175.705 -61.138 191.432 -57.285 196.031 -55.353 C 204.186 -56.392 206.712 -50.309 206.712 -50.309 C 206.712 -50.309 203.3 -46.603 208.639 -41.856 C 200.927 -37.702 206.861 -36.514 206.861 -33.548 C 206.861 -30.58 203.893 -25.833 202.557 -25.089 C 202.411 -24.647 200.037 -24.349 201.817 -25.833 C 203.598 -26.428 200.629 -30.878 198.405 -30.432 C 190.858 -28.915 196.179 -20.494 201.073 -20.048 C 205.969 -19.602 203.893 -13.374 199.74 -15.747 C 195.586 -18.121 190.246 -12.187 194.25 -8.772 C 189.354 -10.108 190.246 -0.911 193.659 3.393 C 189.946 9.475 193.212 18.077 197.96 18.668 C 202.706 19.263 202.706 19.855 205.229 26.532 C 207.748 33.21 216.356 26.384 215.761 19.854 C 215.168 13.329 221.991 9.471 221.103 10.36 C 221.103 10.36 227.037 7.987 223.477 7.395 C 219.916 6.8 223.477 0.867 223.477 0.867 L 230.002 1.462 C 237.121 6.801 239.347 -4.621 239.347 -4.621 C 239.347 -4.621 248.398 -5.067 248.543 -10.257 C 248.691 -15.447 257.892 -11.592 262.192 -15.301 C 266.493 -19.007 271.537 -28.207 267.531 -32.21 C 263.525 -28.501 256.704 -37.108 263.97 -37.254 C 265.08 -37.274 265.96 -37.373 266.65 -37.523 L 266.656 -37.528 Z M 331.716 19.615 C 332.056 20.417 331.943 21.444 331.601 21.561 C 331.256 21.675 333.999 21.903 333.43 20.76 C 332.86 19.61 332.51 18.93 331.71 19.61 L 331.716 19.615 Z M 254.316 -84.425 C 254.98 -82.524 257.433 -81.106 258.338 -81.764 C 259.242 -82.419 261.23 -82.723 259.646 -84.23 C 258.256 -85.552 253.126 -86.653 254.316 -84.425 Z M 350.016 -0.028 C 350.461 1.013 350.314 2.345 349.867 2.494 C 349.422 2.642 352.982 2.939 352.24 1.456 C 351.5 -0.024 351.06 -0.914 350.02 -0.024 L 350.016 -0.028 Z M 376.106 37.362 C 376.767 39.26 379.219 40.679 380.127 40.02 C 381.032 39.366 383.017 39.065 381.431 37.558 C 380.051 36.238 374.921 35.138 376.111 37.358 L 376.106 37.362 Z M 365.186 32.472 C 365.037 32.609 364.857 32.716 364.771 32.911 C 364.967 33.491 365.011 34.193 365.482 34.655 C 365.263 34.839 364.987 34.956 364.892 35.253 C 364.831 35.525 364.712 35.884 365.014 36.083 C 365.604 35.959 366.259 35.726 366.829 36.004 C 367.253 35.573 368 35.566 368 35.566 C 368.842 35.08 368.775 34.066 368.438 33.285 L 368.725 32.772 C 368.393 31.573 367.854 30.361 367.585 29.101 L 367.117 28.585 C 366.981 28.597 366.843 28.619 366.763 28.467 C 366.378 28.974 365.814 28.698 365.449 28.407 C 365.093 28.48 364.716 28.632 364.53 28.99 C 364.968 29.496 365.28 29.91 365.02 30.38 C 364.759 30.847 364.967 31.42 365.177 31.676 C 365.367 31.946 364.357 32.076 365.177 32.476 L 365.186 32.472 Z M 340.076 28.452 C 340.076 28.452 335.623 30.973 336.515 31.42 C 337.405 31.866 341.261 33.053 337.549 33.646 C 333.843 34.241 338.736 36.167 339.778 36.167 C 340.816 36.167 342.002 38.243 342.151 39.43 C 339.629 41.361 346.452 42.249 346.302 42.693 C 346.155 43.139 345.116 46.55 345.116 46.55 C 345.116 46.55 346.302 45.955 346.897 47.143 C 347.489 48.33 347.194 48.924 347.194 48.924 C 347.194 48.924 350.16 47.143 349.862 47.44 C 349.567 47.738 349.122 49.073 349.271 50.111 C 350.309 49.963 350.457 51.595 349.567 53.82 C 346.897 56.342 348.381 57.083 349.567 57.083 C 349.417 58.567 348.527 62.426 351.347 60.94 C 354.162 59.457 355.35 60.792 352.682 63.314 C 350.011 65.836 353.72 65.39 354.162 66.874 C 353.422 69.691 358.467 68.951 359.062 67.024 C 360.988 69.545 360.988 64.352 362.026 64.352 C 363.064 64.352 365.289 64.352 366.031 63.314 C 366.773 62.276 367.369 62.276 368.259 62.127 C 369.148 61.978 372.115 62.425 373.894 59.902 C 375.676 57.38 370.334 52.781 370.334 52.781 C 370.334 52.781 364.549 53.671 364.996 50.854 C 365.438 48.035 360.393 48.48 360.096 47.587 C 359.803 46.698 358.021 43.436 355.204 43.286 C 353.867 40.913 351.049 43.286 351.347 39.28 C 351.644 35.273 350.901 35.128 350.159 34.979 C 349.416 34.831 347.933 33.941 347.488 32.011 C 348.971 28.599 346.008 28.599 345.71 28.747 C 345.413 28.895 344.966 35.272 343.633 28.895 C 342.313 22.535 340.243 27.875 340.093 28.465 L 340.076 28.452 Z M 492.466 113.832 C 490.958 113.838 491.388 116.883 492.299 115.997 C 493.205 115.11 494.467 117.345 494.467 117.345 L 495.599 117.709 C 495.599 117.709 496.679 114.657 496.952 116.658 C 497.227 118.651 498.739 118.642 498.99 117.6 C 500.458 117.768 500.657 114.508 500.657 114.508 C 500.657 114.508 498.433 115.078 497.588 113.771 C 496.738 112.481 493.728 114.881 492.468 113.841 L 492.466 113.832 Z M 473.886 129.772 C 471.954 130.069 473.439 132.443 474.328 131.553 C 475.217 130.661 477.517 132.218 477.517 132.218 L 479.075 132.294 C 479.075 132.294 479.521 129.622 480.486 131.183 C 481.449 132.74 483.378 132.443 483.378 131.553 C 485.306 131.402 484.566 128.734 484.566 128.734 C 484.566 128.734 481.895 129.623 480.412 128.734 C 478.922 127.844 475.802 130.374 473.882 129.774 L 473.886 129.772 Z M 479.666 122.652 C 478.727 122.652 478.926 124.434 480.113 124.282 C 481.303 124.142 483.223 122.652 479.663 122.652 L 479.666 122.652 Z M 471.806 121.762 C 472.25 122.8 472.101 124.135 471.656 124.281 C 471.213 124.433 474.772 124.727 474.029 123.246 C 473.289 121.756 472.849 120.866 471.809 121.756 L 471.806 121.762 Z M 435.446 125.332 C 435.917 126.687 435.592 127.409 435.694 127.476 C 435.735 127.503 435.846 127.423 436.107 127.235 C 437.012 126.58 442.358 127.036 440.772 125.529 C 439.392 124.219 434.262 123.109 435.452 125.339 L 435.446 125.332 Z M 414.846 126.952 C 416.374 126.418 414.656 124.443 415.994 124.832 C 417.332 125.225 415.973 123.294 415.045 123.103 C 414.115 122.913 413.145 126.523 414.845 126.953 L 414.846 126.952 Z M 292.906 308.232 C 291.274 308.529 292.613 313.276 294.688 312.089 C 296.763 310.901 295.428 308.678 297.208 308.678 C 298.989 308.678 301.214 307.639 298.249 307.044 C 295.279 306.444 293.059 309.564 292.909 308.224 L 292.906 308.232 Z M 287.566 292.062 C 285.933 291.172 286.083 294.141 285.193 295.77 C 282.373 297.701 284.748 300.963 284.895 299.331 C 285.044 297.701 287.418 297.106 287.269 295.474 C 293.059 289.694 287.869 291.614 287.569 292.064 L 287.566 292.062 Z M 301.946 299.772 C 302.765 300.962 304.085 301.542 305.633 300.732 C 306.145 299 306.145 297.307 305.421 296.174 C 304.366 295.674 303.208 296.633 302.034 296.763 L 301.383 299.199 L 301.943 299.769 L 301.946 299.772 Z M 320.206 186.622 C 322.349 186.135 321.46 191.825 323.873 189.546 C 326.283 187.276 323.843 184.146 320.203 186.626 L 320.206 186.622 Z M 312.606 175.292 C 313.08 177.217 314.815 178.646 315.455 177.982 C 316.094 177.32 317.5 177.016 316.379 175.491 C 315.399 174.151 311.769 173.041 312.609 175.291 L 312.606 175.292 Z M 319.336 166.442 C 321.523 165.676 319.065 162.853 320.98 163.414 C 322.89 163.972 320.947 161.211 319.624 160.939 C 318.304 160.669 316.914 165.829 319.344 166.449 L 319.336 166.442 Z M 327.656 178.312 C 327.819 180.378 329.892 181.561 330.964 180.64 C 332.032 179.723 334.083 179.017 332.901 177.575 C 331.851 176.305 327.041 175.975 327.651 178.315 L 327.656 178.312 Z M 66.516 298.922 C 65.464 299.264 67.566 300.217 69.051 301.258 C 70.531 302.293 68.156 303.926 65.511 304.58 C 62.863 305.236 64.598 308.379 65.341 307.783 C 66.081 307.191 66.527 307.486 67.122 307.486 C 67.714 307.486 71.719 308.821 71.719 306.893 C 71.719 304.962 74.09 304.52 75.563 303.492 C 77.029 302.467 77.209 300.217 77.069 298.922 C 76.93 297.631 75.278 295.767 74.556 296.748 C 73.829 297.727 70.684 297.399 69.789 297.844 C 68.909 298.284 67.869 298.724 66.519 298.914 L 66.516 298.922 Z M 45.466 297.842 C 45.466 299.325 47.691 298.436 46.949 299.475 C 46.205 300.513 48.28 299.918 48.728 299.176 C 49.178 298.446 46.358 296.516 45.468 297.846 L 45.466 297.842 Z M 54.816 284.202 C 56.153 284.647 53.779 287.465 55.857 287.022 C 57.927 286.572 57.637 284.052 54.817 284.202 L 54.816 284.202 Z M 52.746 291.002 C 52.032 289.701 50.508 291.549 50.66 290.284 C 50.811 289.013 49.276 290.533 49.243 291.398 C 49.213 292.268 52.613 292.608 52.753 291.008 L 52.746 291.002 Z M 57.036 278.862 C 56.654 280.075 57.133 281.43 57.7 281.28 C 58.273 281.128 59.141 281.427 59.034 280.222 C 58.954 279.162 57.334 277.352 57.044 278.862 L 57.036 278.862 Z M 55.136 271.962 C 56.587 272.27 56.177 269.908 57.04 270.848 C 57.9 271.792 57.753 269.636 57.12 269.048 C 56.49 268.458 54.02 270.808 55.14 271.958 L 55.136 271.962 Z M 46.956 252.752 C 46.956 254.235 49.179 253.347 48.436 254.385 C 47.697 255.423 49.773 254.827 50.218 254.087 C 50.658 253.347 47.848 251.417 46.958 252.757 L 46.956 252.752 Z M 50.806 258.242 C 50.215 259.43 50.954 260.761 51.845 260.615 C 52.734 260.468 54.091 260.761 53.921 259.575 C 53.771 258.535 51.251 256.755 50.801 258.245 L 50.806 258.242 Z M 11.286 210.952 C 11.656 209.585 12.675 210.345 13.321 210.952 C 13.966 211.562 13.368 209.126 13.368 209.126 C 13.368 209.126 13.321 207.604 11.748 208.822 C 10.168 210.042 11.098 211.622 11.278 210.952 L 11.286 210.952 Z M 13.986 218.412 C 14.935 218.222 14.584 217.558 14.457 216.892 C 14.331 216.225 13.121 217.143 13.403 217.194 C 13.681 217.244 14.023 217.57 13.862 217.741 C 13.702 217.921 13.432 218.541 13.982 218.411 L 13.986 218.412 Z M 8.536 201.132 C 7.642 201.724 8.829 202.171 9.275 202.171 C 9.721 202.171 9.721 203.06 9.424 203.506 C 9.126 203.952 11.945 203.506 11.202 202.469 C 10.452 201.419 10.012 200.089 8.532 201.129 L 8.536 201.132 Z M 3.486 190.892 C 4.669 189.556 7.936 190.296 10.011 190.892 C 12.087 191.487 10.163 189.11 10.163 189.11 C 10.163 189.11 10.011 187.626 4.969 188.812 C -0.071 190.002 2.909 191.542 3.489 190.892 L 3.486 190.892 Z M 162.656 86.602 C 161.913 85.119 161.913 89.422 161.913 90.163 C 161.913 90.907 160.725 90.312 160.725 91.796 C 160.725 92.128 163.874 93.854 163.545 91.796 C 162.952 88.088 164.583 89.571 165.178 87.939 C 166.408 84.579 163.258 85.579 162.658 86.609 L 162.656 86.602 Z M 116.676 -22.128 C 115.787 -21.98 116.378 -20.201 117.416 -20.645 C 118.455 -21.09 119.641 -21.685 120.088 -20.943 C 120.533 -20.202 120.088 -23.018 118.306 -22.576 C 117.426 -22.356 117.266 -21.536 116.676 -22.126 L 116.676 -22.128 Z M 145.156 -31.538 C 145.218 -31.895 144.859 -32.013 144.445 -31.836 C 144.268 -31.836 144.268 -31.538 144.268 -31.184 C 144.268 -30.814 144.918 -30.994 145.158 -31.534 L 145.156 -31.538 Z M 153.016 -33.848 C 153.165 -34.741 152.276 -35.035 151.236 -34.588 C 150.792 -34.588 150.792 -33.848 150.792 -32.958 C 150.792 -32.068 152.422 -32.508 153.012 -33.848 L 153.016 -33.848 Z M 124.836 -68.115 C 121.274 -68.557 122.757 -66.336 124.241 -66.038 C 123.497 -65.891 124.095 -64.111 124.836 -62.925 C 125.576 -61.737 124.539 -60.105 123.943 -58.621 C 123.348 -57.137 121.722 -60.402 121.722 -61.44 C 121.722 -62.478 117.417 -62.924 118.307 -61.292 C 119.196 -59.658 117.567 -56.694 118.752 -55.804 C 118.307 -51.501 119.79 -51.798 120.534 -49.574 C 121.274 -47.348 127.06 -44.381 127.655 -47.498 C 128.246 -50.612 132.249 -48.536 132.249 -50.761 C 132.249 -52.986 134.774 -52.097 135.665 -54.172 C 136.555 -56.248 136.702 -54.024 137.74 -57.29 C 138.778 -60.552 135.367 -61.591 134.92 -60.105 C 134.478 -58.622 133.437 -56.248 131.361 -56.545 C 132.544 -58.175 132.104 -59.956 131.956 -60.105 C 131.804 -60.251 129.876 -57.732 129.876 -59.663 C 131.361 -63.815 128.986 -64.852 128.986 -64.852 L 128.986 -65.742 C 128.986 -65.742 131.215 -64.704 130.322 -67.226 C 129.412 -69.748 126.592 -68.858 124.822 -68.115 L 124.836 -68.115 Z M 143.376 -69.598 C 143.376 -69.598 141.599 -69.301 142.041 -68.561 C 142.488 -67.817 144.116 -66.928 142.041 -66.484 C 139.966 -66.038 142.041 -64.409 142.041 -64.409 L 143.972 -65.149 C 143.972 -65.149 144.862 -66.038 146.197 -64.851 C 147.533 -63.664 149.31 -66.484 147.83 -66.928 C 146.346 -67.373 146.937 -67.075 146.05 -69.449 C 145.15 -71.824 143.37 -70.636 143.37 -69.598 L 143.376 -69.598 Z M 164.586 -81.169 C 161.62 -81.169 159.396 -79.093 162.658 -76.72 C 165.031 -76.422 164.583 -75.53 163.993 -74.938 C 163.398 -74.346 163.993 -73.308 163.993 -73.308 C 163.993 -73.308 161.025 -71.972 160.137 -70.935 C 159.247 -69.897 161.023 -69.745 162.51 -70.489 L 162.51 -68.264 C 162.51 -68.264 159.988 -66.482 158.949 -67.524 C 157.912 -68.562 157.465 -65.891 158.949 -65.15 C 160.434 -64.41 163.841 -64.849 165.771 -66.039 C 167.255 -65.15 170.965 -64.704 170.965 -64.704 C 170.965 -64.704 173.934 -60.552 175.265 -65.15 C 176.602 -69.749 175.414 -69.004 175.414 -69.004 C 175.414 -69.004 177.639 -73.457 174.524 -74.049 C 171.408 -74.644 177.936 -75.385 177.936 -75.385 L 178.084 -77.018 C 178.084 -77.018 178.974 -79.979 180.309 -79.983 C 181.645 -79.983 180.455 -85.62 175.859 -84.138 C 171.261 -82.654 169.629 -83.397 169.629 -83.397 C 169.629 -83.397 166.218 -82.654 167.848 -81.764 C 169.508 -80.871 164.608 -81.169 164.608 -81.169 L 164.586 -81.169 Z M 125.426 -72.419 C 125.13 -73.308 127.358 -73.457 128.69 -72.419 C 129.434 -72.717 129.136 -74.495 129.583 -75.532 C 130.029 -76.57 129.435 -77.608 129.137 -77.017 C 128.842 -76.421 127.504 -76.276 126.764 -76.124 C 126.317 -75.681 124.687 -74.643 123.203 -74.791 C 120.093 -74.792 124.543 -73.159 125.433 -72.419 L 125.426 -72.419 Z M 138.926 -80.279 C 134.327 -81.913 135.808 -80.279 134.327 -79.685 C 132.399 -77.164 136.254 -78.497 136.254 -77.608 C 136.254 -76.719 135.067 -77.017 136.106 -76.125 C 137.148 -75.235 140.556 -77.312 138.926 -77.608 C 137.296 -77.906 138.926 -79.241 138.926 -80.279 Z M 155.986 -74.495 C 155.725 -74.241 155.342 -74.213 154.957 -74.194 C 154.885 -73.813 155.204 -73.498 155.369 -73.136 C 155.881 -73.026 156.299 -73.396 156.812 -73.288 C 157.045 -73.576 157.855 -73.731 157.633 -74.193 C 157.153 -74.482 156.553 -74.453 155.993 -74.495 L 155.986 -74.495 Z M 148.126 -96.005 C 146.051 -96.005 148.126 -93.632 149.019 -93.632 C 149.908 -93.632 149.461 -92.445 151.24 -92.148 C 153.022 -91.85 152.282 -94.819 151.687 -94.521 C 151.087 -94.222 150.327 -96.005 148.127 -96.005 L 148.126 -96.005 Z M 348.386 -75.385 C 352.538 -75.682 355.507 -75.09 356.693 -75.09 C 357.881 -75.09 360.548 -75.979 361.441 -75.09 C 362.331 -74.197 366.184 -81.021 359.212 -79.983 C 352.239 -78.945 353.725 -78.945 351.649 -80.429 C 349.572 -81.913 348.088 -84.286 346.306 -83.989 C 344.528 -83.692 341.265 -86.065 341.858 -87.55 C 342.453 -89.034 336.519 -88.44 335.035 -89.332 C 333.552 -90.221 330.586 -94.968 328.804 -95.266 C 327.618 -92.594 330.288 -87.55 335.035 -87.253 C 335.925 -83.1 341.56 -78.945 343.044 -78.945 C 344.514 -78.944 348.374 -75.385 348.374 -75.385 L 348.386 -75.385 Z M 298.836 -95.558 C 290.528 -86.362 300.319 -93.185 300.023 -89.921 C 299.728 -86.658 304.178 -89.624 303.88 -87.548 C 304.77 -83.098 313.076 -88.144 310.408 -88.735 C 307.738 -89.331 306.551 -94.669 307.44 -96.451 C 305.66 -98.229 302.99 -97.043 298.83 -95.558 L 298.836 -95.558 Z M 289.046 -75.681 C 286.966 -73.604 289.34 -67.373 292.011 -67.67 C 294.682 -67.968 298.834 -69.155 298.834 -69.155 C 298.834 -69.155 300.913 -65 298.834 -63.813 C 296.757 -62.626 290.726 -63.145 298.54 -60.252 C 306.549 -57.287 308.626 -58.176 309.221 -59.66 C 309.812 -61.14 312.483 -66.185 313.967 -65.889 C 315.155 -68.56 309.812 -70.933 312.78 -72.715 C 315.745 -74.493 313.372 -81.022 313.372 -81.022 C 313.372 -81.022 309.221 -80.724 307.438 -77.756 C 305.659 -74.79 303.286 -78.053 301.504 -78.053 C 301.206 -76.275 300.02 -74.79 300.02 -74.79 L 298.833 -77.461 C 298.833 -77.463 290.523 -77.758 289.043 -75.681 L 289.046 -75.681 Z M 274.216 -6.258 C 270.953 -9.521 269.469 -6.258 272.139 -1.805 C 268.282 -2.698 265.611 0.568 268.876 0.568 C 272.139 0.568 280.743 4.129 273.028 4.129 C 265.317 4.129 272.436 8.281 275.402 7.983 C 278.37 7.689 278.37 7.391 280.447 8.281 C 282.522 9.17 286.678 7.391 286.678 7.391 C 286.678 7.391 288.158 2.346 292.314 1.754 C 294.092 -5.366 287.269 -8.632 285.491 -8.036 C 283.71 -7.445 284.006 -5.961 281.93 -5.366 C 279.84 -4.766 276.11 -4.346 274.21 -6.246 L 274.216 -6.258 Z M 118.456 -67.968 C 118.268 -67.718 117.993 -67.69 117.716 -67.67 C 117.661 -67.298 117.893 -66.986 118.01 -66.63 C 118.38 -66.522 118.684 -66.886 119.051 -66.781 C 119.22 -67.062 119.805 -67.215 119.643 -67.67 C 119.293 -67.96 118.873 -67.927 118.463 -67.968 L 118.456 -67.968 Z M 138.926 -89.331 C 138.739 -89.081 138.464 -89.052 138.181 -89.033 C 138.131 -88.659 138.363 -88.349 138.479 -87.992 C 138.85 -87.884 139.15 -88.248 139.521 -88.144 C 139.689 -88.424 140.271 -88.577 140.112 -89.033 C 139.762 -89.321 139.332 -89.29 138.922 -89.331 L 138.926 -89.331 Z M 133.136 -87.992 C 132.475 -88.308 131.744 -88.365 131.058 -88.587 C 130.63 -86.878 129.017 -87.594 127.795 -87.697 C 127.397 -86.982 127.042 -87.431 126.31 -87.399 C 125.124 -86.798 124.627 -85.991 125.124 -84.729 C 125.896 -83.928 125.87 -82.903 126.607 -82.058 C 127.874 -82.646 128.601 -84.013 128.389 -85.324 C 129.563 -84.66 130.413 -85.868 131.652 -85.916 C 132.095 -85.146 133.022 -85.182 133.728 -85.619 C 133.778 -86.467 133.828 -87.362 133.148 -87.992 L 133.136 -87.992 Z M 150.946 -86.214 C 150.866 -87.124 150.23 -87.476 149.758 -87.992 C 147.238 -88.422 146.375 -85.479 146.197 -83.542 C 145.536 -83.419 145.599 -82.757 145.304 -82.355 C 145.147 -81.074 144.915 -79.418 143.526 -79.092 C 143.358 -77.728 144.259 -76.579 145.304 -75.829 C 145.447 -76.668 146.403 -76.484 146.789 -77.017 L 147.677 -77.017 C 148.469 -75.93 149.551 -76.162 150.052 -77.311 C 150.165 -77.912 150.497 -78.409 150.945 -78.795 C 150.687 -79.038 151.672 -79.696 150.647 -79.685 C 150.903 -79.931 149.918 -80.586 150.945 -80.577 C 151.024 -80.862 150.856 -81.023 150.647 -81.169 C 150.945 -82.653 150.584 -84.267 151.536 -85.619 L 150.956 -86.214 L 150.946 -86.214 Z M 123.496 -14.858 C 123.309 -14.611 123.034 -14.583 122.753 -14.563 C 122.702 -14.19 122.933 -13.879 123.051 -13.522 C 123.42 -13.415 123.722 -13.775 124.091 -13.67 C 124.259 -13.955 124.841 -14.108 124.684 -14.563 C 124.334 -14.843 123.904 -14.813 123.494 -14.853 L 123.496 -14.858 Z M 130.316 -21.088 C 130.911 -21.236 129.869 -23.462 130.464 -24.649 C 131.056 -25.836 131.354 -25.539 131.056 -27.171 C 130.761 -28.804 129.278 -27.763 128.537 -27.022 C 128.474 -26.203 127.468 -26.019 127.349 -25.244 C 126.457 -25.494 125.795 -25.014 125.274 -24.351 C 125.771 -24.455 125.842 -23.927 126.163 -23.759 L 126.163 -22.87 C 127.55 -22.205 127.35 -20.775 127.053 -19.603 C 127.695 -18.531 128.55 -17.806 129.724 -17.527 C 131.284 -18.087 131.174 -19.757 130.324 -21.097 L 130.316 -21.088 Z M 150.126 -15.828 C 149.752 -17.828 145.454 -15.012 142.486 -16.348 C 142.106 -17.187 141.349 -16.898 140.708 -16.943 C 140.29 -16.651 139.948 -16.329 140.113 -15.755 C 138.903 -15.692 137.549 -16.499 136.552 -15.16 C 135.256 -14.794 134.897 -16.762 133.586 -16.348 C 132.776 -15.243 131.804 -15.012 130.618 -15.755 C 129.58 -14.568 127.937 -12.996 129.43 -11.009 C 129.872 -10.413 132.69 -9.375 132.914 -11.081 C 133.936 -10.704 134.996 -11.049 136.031 -10.933 C 136.471 -10.449 137.209 -10.781 137.662 -10.338 C 138.181 -9.525 139.216 -8.777 139.442 -9.15 L 140.111 -9.821 C 141.661 -8.502 139.936 -7.116 140.111 -5.666 C 141.926 -2.961 144.133 -0.618 146.639 1.454 C 145.607 5.558 148.882 9.461 153.164 9.166 C 152.828 8.245 154.095 7.721 153.758 6.793 C 151.49 4.359 151.889 0.967 151.385 -2.105 C 152.658 -1.131 154.139 -1.621 155.537 -1.514 C 157.778 -5.096 156.794 -10.818 153.164 -13.381 L 153.164 -17.532 C 152.353 -18.988 151.521 -18.419 150.199 -18.128 C 150.081 -16.932 150.913 -16.121 151.385 -15.159 C 151.765 -14.379 150.535 -15.539 150.135 -15.819 L 150.126 -15.828 Z M 173.936 -9.818 C 173.891 -13.015 172.22 -16.027 172.748 -19.312 C 171.425 -21.356 170.422 -23.885 170.375 -26.432 C 171.828 -27.366 173.492 -27.733 175.121 -28.211 C 174.676 -29.762 175.197 -31.435 174.526 -32.957 C 173.305 -33.483 172.782 -35.403 170.966 -34.739 C 171.203 -35.755 169.124 -35.223 169.779 -36.517 L 169.779 -41.859 C 170.192 -41.568 171.276 -41.246 171.114 -40.672 C 173.883 -41.159 175.466 -38.593 175.713 -35.925 C 177.887 -37.539 177.434 -40.615 177.495 -43.045 C 176.222 -43.748 175.23 -44.739 174.525 -46.011 C 173.054 -45.6 171.778 -46.581 170.374 -46.606 L 170.374 -51.353 C 169.943 -52.473 168.427 -51.416 168.001 -52.54 C 167.583 -53.622 167.61 -54.8 166.813 -56.101 L 165.031 -56.101 C 162.497 -59.121 157.949 -58.393 154.351 -57.879 C 152.477 -56.721 151.508 -54.78 150.198 -53.133 C 147.864 -53.779 146.303 -56.113 143.67 -56.101 C 142.954 -55.398 142.851 -54.24 141.892 -53.728 C 141.646 -52.085 142.903 -50.639 142.485 -48.98 L 141.297 -48.98 C 141.646 -47.835 139.927 -48.762 140.109 -47.794 C 139.565 -45.461 140.588 -44.19 142.484 -43.046 C 143.785 -43.727 145.28 -43.727 146.639 -44.234 C 145.907 -43.37 147.957 -43.905 147.23 -43.046 C 148.787 -42.704 150.065 -43.56 151.385 -44.234 C 153.003 -44.683 153.964 -43.544 154.946 -42.452 C 155.249 -41.364 154.578 -40.468 154.351 -39.487 C 155.844 -39.078 156.936 -38.306 157.912 -37.113 C 157.946 -35.421 156.689 -34.056 156.724 -32.367 C 158.106 -30.68 159.652 -31.929 161.471 -31.772 C 159.598 -30.933 156.714 -31.015 157.319 -28.211 C 159.217 -28.273 157.88 -26.534 159.097 -25.837 C 158.025 -24.153 158.686 -22.277 158.506 -20.498 C 158.433 -19.543 157.574 -18.979 157.318 -18.125 C 156.711 -16.135 155.685 -16.235 156.13 -14.564 C 156.9 -14.9 156.875 -12.849 157.91 -13.969 L 157.91 -12.191 C 159.162 -10.916 160.29 -9.675 160.878 -8.035 C 161.166 -7.219 161.944 -7.014 162.508 -6.7 C 163.369 -6.814 163.954 -7.656 164.881 -7.59 C 166.659 -7.59 169.33 -5.96 170.074 -7.444 C 170.844 -8.944 172.624 -9.384 173.964 -9.834 L 173.936 -9.818 Z M 158.126 67.182 C 158.699 67.195 159.088 66.786 159.592 66.853 C 160.165 65.98 160.475 64.606 159.595 63.811 C 159.152 63.413 159.054 62.884 159.206 62.258 C 159.098 62.036 158.984 61.777 158.594 61.748 C 157.156 61.646 155.481 61.131 154.338 62.6 C 153.007 65.119 151.537 67.632 149.557 69.479 C 149.793 70.296 148.645 70.433 148.883 71.246 C 148.259 71.316 147.831 70.876 147.376 70.509 C 147.666 72.214 145.682 72.94 145.974 74.642 C 145.037 74.725 144.873 75.509 144.782 76.364 C 142.035 76.83 139.417 77.943 136.731 78.709 C 136.768 79.688 135.231 79.206 135.534 80.431 L 134.497 80.339 C 135.006 82.055 134.051 83.324 134.082 85.169 C 133.393 84.361 133.678 86.488 132.99 85.681 C 132.63 87.918 131.699 89.982 131.376 92.229 C 133.474 93.533 136.621 92.413 138.335 90.4 C 139.263 90.763 140.104 90.178 140.983 90.02 C 143.174 91.91 145.893 90.131 148.203 91.251 L 149.292 90.735 C 149.127 91.437 149.425 92.004 149.656 92.592 C 149.87 93.035 148.94 93.7 149.459 93.579 C 148.07 94.108 147.814 93.931 146.386 94.13 C 144.871 95.858 142.911 96.712 140.88 97.304 C 143.31 99.918 145.715 95.829 148.304 96.123 C 149.558 93.51 152.509 92.75 154.85 93.038 C 157.96 90.266 160.4 85.924 159.527 81.284 C 157.961 81.513 157.078 79.822 156.099 78.556 L 155.061 78.464 C 154.28 77.214 153.773 75.454 152.207 75.179 C 151.676 73.765 152.347 73.572 152.416 72.768 C 153.252 73.613 153.773 71.999 154.543 72.341 C 156.143 71.021 156.013 67.141 158.113 67.191 L 158.126 67.182 Z M 329.436 57.722 C 329.002 58.102 328.494 58.415 328.248 58.978 C 328.81 60.633 328.929 62.636 330.266 63.959 C 329.652 64.475 328.866 64.816 328.587 65.661 C 328.42 66.446 328.078 67.459 328.945 68.028 C 330.62 67.683 332.493 67.012 334.119 67.803 C 335.334 66.578 337.467 66.556 337.467 66.556 C 339.873 65.174 339.689 62.275 338.718 60.04 L 339.539 58.578 C 338.59 55.157 337.056 51.685 336.283 48.091 L 334.945 46.616 C 334.559 46.65 334.166 46.711 333.929 46.286 C 332.837 47.723 331.217 46.945 330.179 46.109 C 329.154 46.318 328.084 46.755 327.564 47.766 C 328.805 49.222 329.695 50.41 328.954 51.745 C 328.215 53.078 328.806 54.711 329.4 55.451 C 330 56.191 327.11 56.571 329.45 57.721 L 329.436 57.722 Z M 478.336 118.652 C 478.814 118.819 479.19 119.491 479.691 119.266 C 480.119 118.629 480.308 117.594 480.289 116.502 C 479.732 115.892 479.115 116.146 478.637 116.81 C 478.037 117.76 478.337 118.65 478.337 118.65 L 478.336 118.652 Z M 421.366 99.072 L 420.773 99.072 L 420.773 99.664 C 421.314 100.018 421.476 100.524 421.366 101.149 C 420.722 101.17 420.734 101.597 420.773 102.037 C 421.088 102.389 421.44 102.677 421.96 102.633 C 421.95 103.377 421.086 103.879 421.366 104.709 C 422.045 105.099 422.355 105.241 422.849 105.896 C 424.415 106.272 426.003 106.212 427.595 106.193 C 427.513 106.478 427.684 106.639 427.894 106.786 L 427.299 106.786 C 427.181 107.314 426.527 107.625 426.706 108.269 C 426.991 108.187 427.154 108.358 427.299 108.566 L 427.299 109.159 C 428.434 109.191 429.285 109.925 430.267 110.346 C 428.71 111.789 428.95 114.049 429.969 115.688 C 429.69 117.027 429.922 118.175 429.969 119.542 C 429.387 119.941 429.776 120.533 429.672 121.026 C 430.041 121.232 430.033 121.564 429.969 121.916 C 430.4 122.543 431.197 122.428 431.747 122.809 C 432.421 121.6 433.383 121.435 434.716 121.621 C 434.851 120.463 436.21 120.891 436.791 120.138 C 437.049 118.651 436.712 116.903 435.308 115.983 C 435.089 114.708 435.735 113.366 435.013 112.128 C 434.323 112.28 433.675 112.005 433.529 111.235 C 433.912 109.375 432.739 107.732 431.453 106.489 C 430.418 106.179 429.624 106.011 428.783 105.301 C 428.074 103.859 428.994 102.124 427.894 100.853 C 426.554 101.229 425.766 100.362 426.112 99.074 C 425.254 98.334 424.167 98.378 423.146 98.181 C 423.225 98.469 423.058 98.63 422.849 98.777 C 422.319 98.687 421.909 99.227 421.359 99.067 L 421.366 99.072 Z M 293.496 298.732 L 292.906 299.032 L 292.906 300.517 C 293.849 300.677 294.596 301.327 295.578 301.108 C 296.43 300.495 296.803 299.495 296.764 298.44 C 295.654 297.86 294.444 298.1 293.494 298.74 L 293.496 298.732 Z M -7.324 234.172 C -6.273 232.349 -15.053 232.729 -16.397 233.982 C -16.095 235.013 -15.797 236.043 -15.238 236.976 C -14.3 237.301 -13.162 237.027 -12.406 237.907 C -11.897 237.704 -11.413 238.596 -10.892 237.938 C -9.906 238.985 -8.239 238.289 -7.255 239.352 C -6.569 239.552 -5.88 239.691 -5.164 239.511 L -4.842 238.065 C -5.702 236.725 -7.112 235.875 -7.322 234.185 L -7.324 234.172 Z M 38.376 255.542 L 41.272 256.184 C 41.946 254.795 42.322 253.372 42.238 251.839 L 41.368 251.647 C 40.497 250.692 39.098 250.255 37.893 250.877 C 36.62 249.71 34.87 250.956 33.354 250.781 C 32.411 251.418 32.411 253.345 34.19 253.494 C 35.971 253.64 37.008 253.494 36.861 254.234 C 36.701 254.984 36.621 256.564 38.361 255.554 L 38.376 255.542 Z M 5.776 242.232 C 5.776 242.232 4.525 241.473 4.358 240.4 C 3.327 239.435 2.057 239.153 0.82 239.916 C 0.127 241.354 0.992 242.653 1.431 244.004 C 2.002 244.501 2.639 244.903 3.266 245.324 C 4.088 245.954 5.3 245.714 6.035 246.543 C 7.354 246.324 8.675 246.495 9.994 246.511 C 10.263 247.281 10.82 247.822 11.409 248.344 C 12.048 248.426 12.672 248.366 13.279 248.148 C 13.639 249.145 14.649 249.578 15.21 250.401 L 16.368 250.658 C 16.789 250.388 17.361 250.459 17.719 250.047 C 19.388 250.003 21.068 250.835 22.612 249.914 C 24.464 250.243 26.249 250.995 28.179 250.843 C 28.179 250.843 28.56 249.781 29.657 249.655 C 29.846 248.383 30.195 246.545 31.878 246.501 C 32.822 246.484 31.527 244.44 30.525 244.377 C 29.76 243.168 29.445 241.788 27.724 241.934 C 27.616 241.318 27.724 240.678 27.53 240.067 C 25.23 239.495 22.976 238.153 21.736 236.048 C 20.935 235.911 20.338 235.219 19.479 235.243 C 19.185 235.035 18.894 234.819 18.739 234.472 C 17.158 235.326 15.353 234.07 13.688 233.959 C 13.726 235.541 9.062 234.558 10.014 235.393 C 11.201 236.431 12.22 238.147 11.795 238.656 C 11.055 239.549 11.935 241.751 12.532 241.909 C 10.893 242.814 9.31 242.02 7.706 241.751 C 7.276 242.561 6.366 241.821 5.766 242.231 L 5.776 242.232 Z M 13.276 191.482 C 13.046 191.512 12.795 191.037 12.383 191.185 C 11.965 192.71 14.155 194.966 11.791 195.637 L 11.791 196.229 L 12.383 196.824 L 12.979 196.824 C 13.608 196.236 14.045 195.629 13.869 194.745 C 14.356 194.834 14.508 194.417 14.757 194.154 C 13.894 194.088 14.236 193.132 14.166 192.67 C 13.736 193.037 14.002 192.009 13.571 192.372 C 13.381 192.133 13.892 191.655 13.571 191.482 L 13.261 191.482 L 13.276 191.482 Z M 2.596 197.712 C 3.039 196.232 0.516 195.339 -0.075 196.822 C -1.698 196.959 -2.069 198.354 -1.856 199.788 C -0.958 200.288 -0.96 201.057 -0.373 201.864 C 1.219 201.74 2.888 202.224 4.373 201.272 L 4.373 199.196 C 3.773 198.706 2.953 198.486 2.593 197.706 L 2.596 197.712 Z M -18.452 199.332 C -18.452 199.332 -22.176 202.466 -23.651 202.904 L -24.803 202.61 L -25.533 205.484 C -23.97 207.319 -21.336 208.693 -18.783 207.819 L -18.488 206.671 L -12.739 208.136 C -12.573 207.699 -13.057 206.693 -11.871 207.133 C -10.593 208.414 -10.522 211.396 -8.004 211.184 L -7.146 212.626 C -6.074 213.171 -4.537 212.664 -3.846 214.079 L -4.138 215.231 L -2.99 215.522 C -3.687 216.829 -2.457 217.994 -2.719 219.266 C -3.912 220.506 -4.826 221.465 -6.474 221.984 C -6.992 223.145 -6.925 224.361 -6.78 225.58 C -4.495 226.854 -2.226 228.172 0.401 228.637 C 1.015 228.466 1.623 228.216 2.274 228.501 C 5.363 230.779 9.241 230.878 12.769 230.57 C 13.541 229.269 14.975 228.525 14.946 226.839 C 13.867 226.748 13.411 225.368 12.218 225.529 C 10.098 226.94 7.799 225.415 5.601 225.063 C 3.727 222.962 4.072 220.139 3.189 217.715 L -0.836 216.687 C -1.76 214.364 -0.59 211.509 -2.671 209.481 C -7.248 207.506 -9.346 203.262 -10.967 198.791 C -13.586 197.701 -16.013 197.851 -18.445 199.351 L -18.452 199.332 Z M -68.757 310.902 C -70.832 310.311 -72.316 312.09 -71.128 313.276 C -69.942 314.463 -67.569 316.838 -70.24 316.245 C -72.908 315.65 -74.428 319.005 -72.908 319.509 C -71.128 320.1 -68.757 318.618 -66.679 318.913 C -65.495 317.733 -66.68 312.693 -68.757 310.913 L -68.757 310.902 Z M 66.533 534.602 L 66.004 535.286 C -39.726 472.736 -110.686 357.076 -110.686 224.746 C -110.686 85.156 -31.72 -35.884 83.714 -95.604 L 85.818 -94.956 C 87.006 -92.88 85.52 -91.395 83.445 -89.022 C 81.368 -86.648 79.884 -83.087 80.774 -81.012 C 81.663 -78.933 74.542 -77.746 72.169 -77.154 C 69.796 -76.559 65.94 -75.374 64.755 -66.771 C 63.567 -58.167 58.821 -63.211 57.634 -63.211 C 56.447 -63.211 52.59 -56.683 49.327 -56.98 C 46.061 -57.278 42.501 -55.198 43.393 -52.53 C 44.282 -49.859 39.535 -47.486 36.567 -48.078 C 36.863 -42.441 33.006 -43.036 33.006 -43.036 C 33.006 -43.036 32.414 -39.18 26.183 -37.992 C 19.952 -36.805 21.734 -36.508 20.844 -32.649 C 19.951 -28.795 12.24 -30.276 11.941 -24.64 C 11.645 -19.004 6.986 -25.533 3.932 -15.146 C 2.448 -10.102 -2.596 -8.621 -4.375 -8.916 C -6.157 -9.213 -12.091 -2.982 -11.793 0.873 C -13.869 2.06 -18.617 0.281 -17.132 5.028 L -21.287 5.917 C -21.287 5.917 -19.21 14.225 -25.145 15.709 C -31.079 17.193 -33.452 21.342 -33.452 29.355 C -33.452 32.916 -43.241 30.248 -42.648 31.136 C -42.053 32.027 -42.648 35.288 -42.648 35.288 C -42.648 35.288 -47.098 30.541 -44.724 42.115 C -46.208 47.156 -52.44 42.706 -50.067 50.422 C -47.692 58.134 -52.142 46.564 -54.813 63.477 C -57.778 66.442 -53.625 70.891 -58.668 72.971 C -57.186 77.419 -59.561 81.278 -63.414 84.242 C -64.898 87.803 -60.448 86.024 -68.757 90.473 C -68.757 91.957 -70.24 95.812 -72.316 96.998 C -74.279 98.122 -77.064 106.492 -76.469 109.461 C -76.469 109.461 -79.139 112.131 -78.249 113.021 C -77.361 113.911 -77.655 115.097 -79.734 116.582 C -81.809 118.065 -79.734 121.031 -79.734 121.031 L -81.511 123.107 C -81.511 123.107 -80.325 126.076 -81.511 127.262 C -82.699 128.449 -82.107 132.899 -80.623 133.787 C -79.138 134.68 -78.546 132.307 -78.546 132.307 C -78.546 132.307 -79.138 128.449 -77.952 128.449 C -76.764 128.449 -76.764 126.076 -76.764 126.076 C -76.764 126.076 -75.874 120.142 -74.391 120.142 C -72.907 117.47 -73.039 113.594 -72.907 110.945 C -72.612 105.011 -70.239 103.825 -70.239 103.825 L -69.572 100.188 C -69.572 100.188 -66.973 95.22 -65.493 95.22 C -64.008 95.22 -63.118 95.22 -63.71 96.407 C -64.306 97.595 -66.679 96.109 -67.568 101.155 C -67.27 103.825 -68.16 106.198 -68.16 106.198 C -68.16 106.198 -70.239 107.977 -70.239 109.759 C -70.239 111.537 -69.051 115.988 -69.941 116.88 C -70.831 117.769 -72.612 117.769 -73.204 125.779 C -74.392 128.152 -76.468 127.559 -74.986 134.383 C -77.062 137.349 -75.875 141.504 -72.907 143.877 C -69.941 146.25 -72.314 149.514 -75.28 149.811 L -75.28 152.777 C -79.733 150.999 -77.36 156.338 -77.062 157.524 C -79.435 158.711 -81.213 162.271 -78.84 161.679 C -76.467 161.084 -78.247 164.644 -78.247 164.644 C -78.247 164.644 -81.51 171.765 -80.622 173.546 C -79.732 175.324 -80.026 180.666 -80.026 180.666 L -77.359 180.666 C -77.359 180.666 -75.874 183.929 -77.359 186.005 C -78.839 188.084 -75.576 189.862 -74.985 191.05 C -74.39 192.237 -74.092 193.721 -74.985 195.204 C -75.874 196.685 -72.313 199.356 -73.501 201.729 C -74.689 204.103 -73.799 208.85 -71.426 209.445 C -69.051 210.038 -68.457 212.411 -65.195 211.521 C -61.933 210.631 -63.413 216.268 -63.413 216.268 C -63.413 216.268 -60.15 221.015 -61.04 222.499 C -60.447 223.979 -57.479 223.979 -57.479 223.979 C -57.479 223.979 -60.15 227.837 -59.261 229.321 C -58.371 230.805 -58.073 235.255 -58.073 235.255 L -55.105 236.739 C -55.105 236.739 -53.623 239.407 -52.139 240.594 C -50.655 241.781 -53.029 246.233 -49.766 245.34 C -47.391 248.607 -48.578 253.648 -50.064 254.54 C -51.544 255.429 -47.095 257.014 -47.095 258.691 C -47.095 262.252 -43.534 263.437 -43.534 263.437 C -43.832 264.327 -47.39 265.812 -45.017 267.295 C -42.644 268.779 -42.942 271.152 -41.456 275.603 C -39.676 277.829 -36.115 278.866 -38.935 285.688 C -41.753 292.514 -37.156 288.954 -37.007 289.103 C -36.858 289.249 -38.64 291.329 -36.412 290.588 C -34.186 289.843 -30.626 289.546 -30.626 292.365 C -30.626 295.181 -29.443 297.413 -24.101 296.521 C -23.507 294.59 -20.006 289.557 -19.652 296.223 C -19.5 299.038 -18.314 297.409 -18.314 297.409 C -18.314 297.409 -19.005 300.783 -16.981 302.303 C -16.386 302.749 -17.279 304.973 -17.279 304.973 C -17.279 304.973 -15.051 306.904 -15.939 310.166 C -16.832 313.43 -12.975 311.056 -13.718 315.062 C -14.458 319.068 -12.379 318.916 -12.379 318.916 C -12.379 318.916 -14.136 320.429 -14.753 327.223 C -15.198 332.121 -18.167 327.966 -23.06 331.97 C -22.025 334.496 -25.289 335.977 -26.621 336.717 C -27.959 337.46 -29.146 338.648 -26.919 341.17 C -27.959 343.394 -34.485 343.543 -30.036 349.18 C -33.298 350.957 -30.577 353.803 -30.182 356.449 C -29.589 360.452 -36.561 359.564 -30.777 369.057 L -27.067 368.465 C -27.067 368.465 -28.849 372.471 -29.887 372.914 C -30.925 373.36 -27.067 380.332 -24.546 380.779 C -22.025 381.221 -18.465 386.265 -20.096 389.528 C -18.465 390.418 -16.238 393.978 -17.127 396.351 C -18.02 398.724 -15.497 402.582 -15.497 402.582 C -15.497 402.582 -10.751 408.218 -8.82 409.107 C -12.234 412.819 -5.259 417.566 -3.481 417.415 C -1.699 417.269 -6.002 425.874 7.2 431.064 C 7.643 438.482 15.732 436.69 17.732 443.228 C 19.957 450.498 27.226 450.2 27.226 450.2 C 27.226 450.2 31.676 452.425 30.343 457.172 C 33.159 457.172 33.456 457.618 33.309 458.359 C 33.16 459.102 29.748 462.512 29.748 462.512 C 29.748 462.512 34.644 464.145 32.861 469.783 C 31.083 475.419 40.725 470.971 40.28 479.572 C 42.95 482.094 38.944 488.771 46.956 490.699 C 43.988 495.892 45.916 503.011 49.624 503.603 C 53.334 504.199 47.103 514.135 54.077 514.727 L 54.077 518.141 C 54.077 518.141 60.157 517.101 60.603 522.146 C 61.045 527.19 67.131 528.674 65.051 530.75 C 62.961 532.86 65.771 534.49 66.521 534.64 L 66.533 534.602 Z" overflow="visible"/>
  </clipPath>
  <rect clip-path="url(#SVGID_2_)" height="720" width="715.56" y="-135.257" x="-110.685" fill="url(#SVGID_3_)" transform="matrix(1, 0, 0, 1, 5.684341886080802e-14, 0)"/>
  <rect clip-path="url(#SVGID_5_)" height="714.12" width="715.56" y="-129.38" x="-110.685" fill="url(#SVGID_6_)" transform="matrix(1, 0, 0, 1, 5.684341886080802e-14, 0)"/>
  <path d="M 496.726 -8.035 C 497.869 -8.346 497.951 -6.535 499.099 -6.849 C 498.663 -5.038 499.482 -3.747 500.878 -2.696 C 500.28 0.04 501.732 1.971 502.66 4.424 C 503.805 3.958 504.34 4.981 505.033 5.611 C 506.903 4.374 507.561 1.424 507.406 -0.914 C 506.543 -0.839 505.97 -1.901 505.033 -1.509 C 504.255 -3.225 504.426 -5.041 504.438 -6.849 C 501.625 -7.865 503.413 -10.618 502.065 -12.783 C 499.887 -12.504 497.712 -13.649 495.539 -11.595 C 494.369 -10.115 495.259 -7.455 496.739 -8.045 L 496.726 -8.035 Z" fill="#175DAB" transform="matrix(1, 0, 0, 1, 5.684341886080802e-14, 0)"/>
  <path d="M 498.506 5.615 C 497.915 1.463 490.794 -0.91 494.355 8.583 C 491.386 10.957 490.794 16.892 500.289 16.892 C 498.507 21.043 505.627 23.714 505.036 26.977 C 504.441 30.243 506.516 30.537 508.597 30.537 C 510.673 30.537 515.121 31.133 515.121 35.284 C 517.494 34.395 521.352 35.582 520.167 40.924 C 518.979 46.263 524.913 45.965 525.803 45.965 C 526.692 45.965 532.575 58.103 535.892 46.263 C 537.968 38.845 531.737 41.219 531.737 41.219 C 531.737 41.219 530.847 34.99 528.771 35.284 C 526.692 35.582 527.287 29.648 524.914 29.35 C 522.541 29.056 521.651 29.056 520.465 26.977 C 517.495 27.87 516.012 16.892 512.157 17.78 C 508.299 18.67 506.223 15.705 506.223 15.705 C 506.223 15.705 499.694 14.221 501.476 9.771 C 503.256 5.301 498.506 5.601 498.506 5.601 L 498.506 5.615 Z" fill="#175DAB" transform="matrix(1, 0, 0, 1, 5.684341886080802e-14, 0)"/>
  <path d="M 71.876 -48.383 C 71.526 -46.064 69.731 -45.696 67.722 -46.01 L 67.722 -41.858 C 67.083 -41.156 66.383 -40.577 65.348 -40.671 C 66.228 -39.684 67.393 -38.564 68.909 -38.89 C 70.755 -40.43 73.15 -41.355 75.437 -41.263 C 75.304 -42.462 76.336 -43.197 76.625 -44.232 C 78.629 -45.557 81.501 -43.852 82.559 -46.605 C 82.99 -48.412 82.17 -49.704 80.778 -50.757 C 79.559 -50.735 78.487 -49.852 77.217 -50.165 C 77.183 -52.13 75.634 -53.593 75.438 -55.503 L 73.065 -55.503 L 73.065 -51.352 C 72.485 -51.513 72.163 -51.171 71.877 -50.757 L 71.877 -48.383 L 71.876 -48.383 Z" fill="#175DAB" transform="matrix(1, 0, 0, 1, 5.684341886080802e-14, 0)"/>
  <path d="M 61.786 -32.955 C 61.386 -32.955 62.176 -32.955 61.786 -32.955 C 61.466 -32.401 61.071 -31.873 61.194 -31.177 C 63.314 -31.187 65.451 -31.506 67.128 -29.99 C 66.021 -29.179 66.735 -28.01 66.533 -27.021 C 66.948 -26.733 67.29 -26.411 67.128 -25.834 C 71.153 -24.758 69.988 -29.438 70.094 -31.769 C 69.172 -33.284 67.49 -32.957 65.941 -32.955 C 66.103 -33.531 65.761 -33.854 65.346 -34.143 C 64.008 -33.909 61.789 -35.972 61.195 -33.55 L 61.785 -32.95 L 61.786 -32.955 Z" fill="#175DAB" transform="matrix(1, 0, 0, 1, 5.684341886080802e-14, 0)"/>
  <path d="M 24.976 57.645 C 20.846 59.018 20.251 64.952 25.593 63.765 C 30.931 62.578 34.811 61.325 35.394 62.692 C 35.977 64.063 33.008 66.734 34.79 66.437 C 36.569 66.139 36.569 68.217 33.603 70.293 C 30.635 72.37 28.73 74.743 26.267 78.05 C 21.437 84.534 24.11 96.104 30.043 82.459 C 35.977 68.81 37.46 71.777 37.46 71.777 C 37.46 71.777 43.097 72.072 38.052 79.787 C 39.536 80.974 40.127 79.787 41.613 79.49 C 38.052 82.459 38.969 97.006 44.284 83.346 C 46.359 78.005 45.838 78.327 45.838 78.327 C 50.218 76.817 50.955 68.587 42.725 69.143 C 41.316 63.763 46.954 60.5 40.426 57.238 C 39.24 53.381 31.851 53.801 30.796 55.817 C 29.746 57.807 25.546 58.627 24.976 57.627 L 24.976 57.645 Z" fill="#175DAB" transform="matrix(1, 0, 0, 1, 5.684341886080802e-14, 0)"/>
  <path d="M 42.976 90.875 C 40.362 92.28 38.808 102.549 43.689 96.087 C 48.568 89.622 47.555 90.372 47.555 90.372 C 47.555 90.372 49.846 87.115 51.518 87.97 C 53.192 88.824 55.354 86.45 55.777 85.616 C 56.205 84.78 58.746 81.862 52.73 83.955 C 46.71 86.043 47.909 88.024 46.357 88.389 C 44.797 88.749 42.367 88.979 42.977 90.869 L 42.976 90.875 Z" fill="#175DAB" transform="matrix(1, 0, 0, 1, 5.684341886080802e-14, 0)"/>
  <path d="M 39.536 7.095 C 38.052 9.468 42.8 0.272 43.394 5.907 C 43.985 11.544 43.985 12.73 44.874 13.623 C 45.767 14.513 46.357 18.962 44.874 21.038 C 43.394 23.117 43.096 22.82 42.501 19.557 C 41.909 16.291 41.611 13.327 41.019 12.139 C 40.424 10.952 39.536 12.139 39.239 13.623 C 38.941 15.104 39.239 18.37 38.349 19.26 C 37.459 20.149 33.602 15.997 35.678 13.623 C 37.748 11.263 40.718 8.883 39.528 7.103 L 39.536 7.095 Z" fill="#175DAB" transform="matrix(1, 0, 0, 1, 5.684341886080802e-14, 0)"/>
  <path d="M 96.646 -69.745 C 96.204 -70.635 87.45 -69.154 95.612 -64.998 C 95.016 -63.068 95.905 -58.321 98.427 -63.961 C 98.874 -65.296 101.545 -65.594 101.545 -65.594 C 101.987 -63.961 104.36 -67.224 101.393 -69.002 C 98.427 -70.784 99.171 -72.714 99.171 -72.714 C 99.171 -72.714 96.641 -71.081 96.641 -69.745 L 96.646 -69.745 Z" fill="#175DAB" transform="matrix(1, 0, 0, 1, 5.684341886080802e-14, 0)"/>
  <path d="M 572.686 292.215 L 572.686 293.995 C 571.62 294.868 571.046 296.153 570.906 297.555 C 571.3 297.954 571.696 298.348 572.092 298.742 C 570.749 299.967 571.861 301.537 571.499 302.897 C 569.506 302.387 568.12 304.22 567.344 305.863 C 566.879 307.685 567.74 308.957 569.126 310.018 C 568.681 312.833 569.795 315.537 569.719 318.325 C 570.4 318.967 571.24 318.955 572.092 318.917 C 571.585 314.248 573.877 309.947 573.873 305.271 C 574.554 304.012 575.313 302.805 576.247 301.71 L 577.435 301.71 C 577.213 299.16 579.57 297.35 578.621 294.591 C 577.064 294.043 576.219 292.648 575.06 291.621 C 574.08 292.179 573.482 291.207 572.687 291.03 L 572.687 292.22 L 572.686 292.215 Z" fill="#175DAB" transform="matrix(1, 0, 0, 1, 5.684341886080802e-14, 0)"/>
  <path stroke="#C7EAFB" stroke-width=".7119" stroke-miterlimit="10" d="M 250.206 -91.225 C 118.996 -112.795 31.996 -67.047 -23.784 -10.083" fill="none" transform="matrix(1, 0, 0, 1, 5.684341886080802e-14, 0)"/>
  <path stroke="#C7EAFB" stroke-width=".7119" stroke-miterlimit="10" d="M 248.426 -90.633 C 300.644 -102.5 472.276 -76.243 529.236 3.268" fill="none" transform="matrix(1, 0, 0, 1, 5.684341886080802e-14, 0)"/>
  <path stroke="#C7EAFB" stroke-width=".7119" stroke-miterlimit="10" d="M 604.006 248.185 C 606.629 108.585 485.526 -85.335 244.276 -92.415" fill="none" transform="matrix(1, 0, 0, 1, 5.684341886080802e-14, 0)"/>
  <path stroke="#C7EAFB" stroke-width=".7119" stroke-miterlimit="10" d="M 61.066 -82.621 C 87.173 -103.391 184.936 -116.742 250.206 -91.225" fill="none" transform="matrix(1, 0, 0, 1, 5.684341886080802e-14, 0)"/>
  <path stroke="#C7EAFB" stroke-width=".7119" stroke-miterlimit="10" d="M 259.846 -134.989 C 252.726 -132.616 246.052 -107.248 248.425 -90.634 C 248.425 -90.634 266.67 -126.977 292.779 -132.319" fill="none" transform="matrix(1, 0, 0, 1, 5.684341886080802e-14, 0)"/>
  <path stroke="#C7EAFB" stroke-width=".7119" stroke-miterlimit="10" d="M 248.426 -90.633 C 292.335 -109.621 405.516 -106.801 463.666 -61.705" fill="none" transform="matrix(1, 0, 0, 1, 5.684341886080802e-14, 0)"/>
  <path stroke="#C7EAFB" stroke-width=".7119" stroke-miterlimit="10" d="M 384.316 -107.84 C 356.428 -116.742 285.815 -118.522 248.436 -90.634" fill="none" transform="matrix(1, 0, 0, 1, 5.684341886080802e-14, 0)"/>
  <path stroke="#C7EAFB" stroke-width=".7119" stroke-miterlimit="10" d="M 249.316 -92.114 C 264.746 -111.995 302.426 -129.796 325.566 -126.53" fill="none" transform="matrix(1, 0, 0, 1, 5.684341886080802e-14, 0)"/>
  <path stroke="#C7EAFB" stroke-width=".7119" stroke-miterlimit="10" d="M 249.026 -90.633 C 244.28 -104.279 235.526 -125.494 220.694 -134.394" fill="none" transform="matrix(1, 0, 0, 1, 5.684341886080802e-14, 0)"/>
  <path stroke="#C7EAFB" stroke-width=".7119" stroke-miterlimit="10" d="M 177.226 -128.609 C 203.335 -129.201 243.684 -101.906 250.21 -91.225" fill="none" transform="matrix(1, 0, 0, 1, 5.684341886080802e-14, 0)"/>
  <path stroke="#C7EAFB" stroke-width=".7119" stroke-miterlimit="10" d="M 135.686 -117.334 C 167.132 -122.676 225.877 -109.622 250.206 -91.226" fill="none" transform="matrix(1, 0, 0, 1, 5.684341886080802e-14, 0)"/>
  <path stroke="#C7EAFB" stroke-width=".7119" stroke-miterlimit="10" d="M 107.646 -106.951 C 22.203 -59.481 65.667 41.099 255.546 41.099 C 400.326 41.099 488.296 -61.411 402.846 -99.381" fill="none" transform="matrix(1, 0, 0, 1, 5.684341886080802e-14, 0)"/>
  <path stroke="#C7EAFB" stroke-width=".7119" stroke-miterlimit="10" d="M 3.666 -39.008 C -40.905 32.512 39.682 109.012 187.316 127.232 C 208.713 129.873 231.518 131.29 255.553 131.29 C 400.333 131.29 539.333 55.487 501.353 -28.77" fill="none" transform="matrix(1, 0, 0, 1, 5.684341886080802e-14, 0)"/>
  <path stroke="#C7EAFB" stroke-width=".7119" stroke-miterlimit="10" d="M -65.313 49.255 C -84.301 152.505 65.667 227.415 255.547 227.415 C 400.327 227.415 585.017 159.919 558.907 48.365" fill="none" transform="matrix(1, 0, 0, 1, 5.684341886080802e-14, 0)"/>
  <path stroke="#C7EAFB" stroke-width=".7119" stroke-miterlimit="10" d="M -104.774 159.325 C -79.852 256.637 65.526 324.585 255.406 324.585 C 400.186 324.585 597.186 258.127 596.006 144.195" fill="none" transform="matrix(1, 0, 0, 1, 5.684341886080802e-14, 0)"/>
  <path stroke="#C7EAFB" stroke-width=".7119" stroke-miterlimit="10" d="M 604.456 239.285 C 585.466 355.585 395.586 414.915 249.616 411.355 C 51.436 406.608 -68.724 357.505 -110.264 241.205" fill="none" transform="matrix(1, 0, 0, 1, 5.684341886080802e-14, 0)"/>
  <path stroke="#C7EAFB" stroke-width=".7119" stroke-miterlimit="10" d="M -86.824 95.685 C -38.758 -18.245 105.346 -103.255 250.206 -91.225" fill="none" transform="matrix(1, 0, 0, 1, 5.684341886080802e-14, 0)"/>
  <path stroke="#C7EAFB" stroke-width=".7119" stroke-miterlimit="10" d="M -109.963 249.375 C -112.337 122.985 27.697 -84.705 250.207 -91.225" fill="none" transform="matrix(1, 0, 0, 1, 5.684341886080802e-14, 0)"/>
  <path stroke="#C7EAFB" stroke-width=".7119" stroke-miterlimit="10" d="M -71.396 388.215 C -118.527 191.835 1.25 -24.795 248.434 -90.635" fill="none" transform="matrix(1, 0, 0, 1, 5.684341886080802e-14, 0)"/>
  <path stroke="#C7EAFB" stroke-width=".7119" stroke-miterlimit="10" d="M 33.636 513.415 C -138.444 293.875 68.046 -26.545 248.426 -90.635" fill="none" transform="matrix(1, 0, 0, 1, 5.684341886080802e-14, 0)"/>
  <path stroke="#C7EAFB" stroke-width=".7119" stroke-miterlimit="10" d="M 115.516 559.705 C -40.524 447.255 53.806 43.465 248.426 -90.635" fill="none" transform="matrix(1, 0, 0, 1, 5.684341886080802e-14, 0)"/>
  <path stroke="#C7EAFB" stroke-width=".7119" stroke-miterlimit="10" d="M 248.426 -90.633 C 136.766 23.377 60.926 529.297 185.528 579.137" fill="none" transform="matrix(1, 0, 0, 1, 5.684341886080802e-14, 0)"/>
  <path stroke="#C7EAFB" stroke-width=".7119" stroke-miterlimit="10" d="M 236.566 584.335 C 187.308 581.173 233.209 -75.405 248.433 -90.625" fill="none" transform="matrix(1, 0, 0, 1, 5.684341886080802e-14, 0)"/>
  <path stroke="#C7EAFB" stroke-width=".7119" stroke-miterlimit="10" d="M 566.036 387.625 C 627.099 180.995 529.541 -16.315 246.056 -91.815" fill="none" transform="matrix(1, 0, 0, 1, 5.684341886080802e-14, 0)"/>
  <path stroke="#C7EAFB" stroke-width=".7119" stroke-miterlimit="10" d="M 460.856 513.275 C 675.656 304.555 459.354 -16.035 246.056 -91.815" fill="none" transform="matrix(1, 0, 0, 1, 5.684341886080802e-14, 0)"/>
  <path stroke="#C7EAFB" stroke-width=".7119" stroke-miterlimit="10" d="M 378.976 559.405 C 557.266 439.715 502.446 84.835 246.056 -91.815" fill="none" transform="matrix(1, 0, 0, 1, 5.684341886080802e-14, 0)"/>
  <path stroke="#C7EAFB" stroke-width=".7119" stroke-miterlimit="10" d="M 246.056 -91.82 C 379.216 44.15 498.006 507.39 308.359 579.43" fill="none" transform="matrix(1, 0, 0, 1, 5.684341886080802e-14, 0)"/>
  <path stroke="#C7EAFB" stroke-width=".7119" stroke-miterlimit="10" d="M 257.476 584.475 C 384.056 576.358 266.233 -71.635 246.055 -91.825" fill="none" transform="matrix(1, 0, 0, 1, 5.684341886080802e-14, 0)"/>
  <path stroke="#C7EAFB" stroke-width=".7119" stroke-miterlimit="10" d="M -38.018 443.105 C 62.112 560.885 414.572 575.125 523.902 452.599" fill="none" transform="matrix(1, 0, 0, 1, 5.684341886080802e-14, 0)"/>
  <path stroke="#C7EAFB" stroke-width=".7119" stroke-miterlimit="10" d="M 115.216 559.255 C 173.6 585.19 316.736 586.43 378.976 559.407" fill="none" transform="matrix(1, 0, 0, 1, 5.684341886080802e-14, 0)"/>
  <path stroke="#000" stroke-width="1.4171" stroke-miterlimit="3.8636" d="M 247.096 584.745 C 444.696 584.745 604.876 423.565 604.876 224.745 C 604.876 128.54 567.367 41.145 506.265 -23.435 C 441.095 -92.322 349.075 -135.255 247.095 -135.255 C 49.505 -135.257 -110.685 25.925 -110.685 224.745 C -110.686 423.565 49.505 584.745 247.095 584.745 L 247.096 584.745 Z" fill="none" transform="matrix(1, 0, 0, 1, 5.684341886080802e-14, 0)"/>
  <path stroke="#A3DEF9" stroke-width="4.1658" stroke-miterlimit="5" fill="none" transform="matrix(1, 0, 0, 1, 5.684341886080802e-14, 0)"/>
  <path stroke="#C7EAFB" stroke-width=".7119" stroke-miterlimit="10" d="M -86.675 355.435 C -13.24 492.475 427.415 564.295 582.495 350.838" fill="none" transform="matrix(1, 0, 0, 1, 5.684341886080802e-14, 0)"/>
  <path style="fill: black; stroke: none;" d="M -36.615 124.924 L -17.476 126.36 C 2.373 103.622 10.17 36.363 127.133 49.527 C 122.88 337.709 -1.881 368.108 5.917 427.227 C 8.753 460.737 34.98 481.322 63.335 482.518 C 152.889 479.407 148.872 357.097 176.754 48.809 L 292.3 48.809 C 286.156 157.476 269.379 266.142 267.489 372.655 C 268.907 443.503 311.439 481.322 367.439 481.8 C 459.593 484.912 488.656 376.006 488.656 329.571 L 468.807 329.571 C 466.917 367.867 448.723 395.393 409.972 397.069 C 304.35 398.505 362.478 208.937 363.187 50.246 L 488.656 50.964 L 487.948 -30.177 C -33.553 -32.736 32.64 -43.092 -36.615 124.924 Z" transform="matrix(1, 0, 0, 1, 5.684341886080802e-14, 0)"/>
</svg>